<svg xmlns="http://www.w3.org/2000/svg" xmlns:xlink="http://www.w3.org/1999/xlink" width="398" zoomAndPan="magnify" viewBox="0 0 298.5 295.499996" height="394" preserveAspectRatio="xMidYMid meet" version="1.0"><defs><clipPath id="02318851d5"><path d="M 0.00390625 0 L 297.847656 0 L 297.847656 294.394531 L 0.00390625 294.394531 Z M 0.00390625 0 " clip-rule="nonzero"/></clipPath><clipPath id="c0d7919677"><path d="M 58.402344 0 L 239.273438 0 C 271.527344 0 297.675781 26.148438 297.675781 58.402344 L 297.675781 235.992188 C 297.675781 268.246094 271.527344 294.394531 239.273438 294.394531 L 58.402344 294.394531 C 26.148438 294.394531 0.00390625 268.246094 0.00390625 235.992188 L 0.00390625 58.402344 C 0.00390625 26.148438 26.148438 0 58.402344 0 Z M 58.402344 0 " clip-rule="nonzero"/></clipPath><clipPath id="0b72ff4c52"><path d="M 137 65.582031 L 161 65.582031 L 161 90 L 137 90 Z M 137 65.582031 " clip-rule="nonzero"/></clipPath></defs><g clip-path="url(#02318851d5)"><g clip-path="url(#c0d7919677)"><path fill="#5e17eb" d="M 0.00390625 0 L 297.847656 0 L 297.847656 294.394531 L 0.00390625 294.394531 Z M 0.00390625 0 " fill-opacity="1" fill-rule="nonzero"/></g></g><g clip-path="url(#0b72ff4c52)"><path fill="#ffffff" d="M 148.839844 65.609375 C 149.613281 65.609375 150.375 65.683594 151.132812 65.835938 C 151.890625 65.984375 152.625 66.207031 153.339844 66.503906 C 154.050781 66.796875 154.726562 67.160156 155.371094 67.589844 C 156.011719 68.019531 156.605469 68.503906 157.152344 69.050781 C 157.695312 69.597656 158.183594 70.191406 158.613281 70.832031 C 159.042969 71.472656 159.402344 72.152344 159.699219 72.863281 C 159.992188 73.578125 160.21875 74.3125 160.367188 75.066406 C 160.519531 75.824219 160.59375 76.589844 160.59375 77.359375 C 160.59375 78.132812 160.519531 78.898438 160.367188 79.652344 C 160.21875 80.410156 159.992188 81.144531 159.699219 81.859375 C 159.402344 82.570312 159.042969 83.25 158.613281 83.890625 C 158.183594 84.53125 157.695312 85.125 157.152344 85.671875 C 156.605469 86.21875 156.011719 86.703125 155.371094 87.132812 C 154.726562 87.5625 154.050781 87.921875 153.339844 88.21875 C 152.625 88.515625 151.890625 88.738281 151.132812 88.886719 C 150.375 89.039062 149.613281 89.113281 148.839844 89.113281 C 148.070312 89.113281 147.304688 89.039062 146.546875 88.886719 C 145.792969 88.738281 145.054688 88.515625 144.34375 88.21875 C 143.628906 87.921875 142.953125 87.5625 142.3125 87.132812 C 141.667969 86.703125 141.074219 86.21875 140.53125 85.671875 C 139.984375 85.125 139.496094 84.53125 139.070312 83.890625 C 138.640625 83.25 138.277344 82.570312 137.984375 81.859375 C 137.6875 81.144531 137.464844 80.410156 137.3125 79.652344 C 137.164062 78.898438 137.089844 78.132812 137.089844 77.359375 C 137.089844 76.589844 137.164062 75.824219 137.3125 75.066406 C 137.464844 74.3125 137.6875 73.578125 137.984375 72.863281 C 138.277344 72.152344 138.640625 71.472656 139.070312 70.832031 C 139.496094 70.191406 139.984375 69.597656 140.53125 69.050781 C 141.074219 68.503906 141.667969 68.019531 142.3125 67.589844 C 142.953125 67.160156 143.628906 66.796875 144.34375 66.503906 C 145.054688 66.207031 145.792969 65.984375 146.546875 65.835938 C 147.304688 65.683594 148.070312 65.609375 148.839844 65.609375 Z M 148.839844 65.609375 " fill-opacity="1" fill-rule="nonzero"/></g><path fill="#ffffff" d="M 168.234375 113.375 C 172.824219 117.96875 180.265625 117.96875 184.859375 113.375 C 189.449219 108.785156 189.449219 101.34375 184.859375 96.75 C 180.265625 92.160156 172.824219 92.160156 168.234375 96.75 C 163.640625 101.34375 163.640625 108.785156 168.234375 113.375 Z M 168.234375 113.375 " fill-opacity="1" fill-rule="nonzero"/><path fill="#ffffff" d="M 204.25 121.015625 C 205.023438 121.015625 205.789062 121.089844 206.542969 121.242188 C 207.300781 121.390625 208.035156 121.617188 208.75 121.910156 C 209.460938 122.207031 210.140625 122.566406 210.78125 122.996094 C 211.421875 123.425781 212.015625 123.914062 212.5625 124.457031 C 213.105469 125.003906 213.59375 125.597656 214.023438 126.238281 C 214.453125 126.882812 214.8125 127.558594 215.109375 128.269531 C 215.40625 128.984375 215.628906 129.71875 215.777344 130.476562 C 215.929688 131.234375 216.003906 131.996094 216.003906 132.769531 C 216.003906 133.539062 215.929688 134.304688 215.777344 135.0625 C 215.628906 135.816406 215.40625 136.554688 215.109375 137.265625 C 214.8125 137.980469 214.453125 138.65625 214.023438 139.296875 C 213.59375 139.941406 213.105469 140.53125 212.5625 141.078125 C 212.015625 141.625 211.421875 142.113281 210.78125 142.539062 C 210.140625 142.96875 209.460938 143.332031 208.75 143.625 C 208.035156 143.921875 207.300781 144.144531 206.542969 144.296875 C 205.789062 144.445312 205.023438 144.519531 204.25 144.519531 C 203.480469 144.519531 202.714844 144.445312 201.957031 144.296875 C 201.203125 144.144531 200.46875 143.921875 199.753906 143.625 C 199.042969 143.332031 198.363281 142.96875 197.722656 142.539062 C 197.082031 142.113281 196.488281 141.625 195.941406 141.078125 C 195.394531 140.53125 194.910156 139.941406 194.480469 139.296875 C 194.050781 138.65625 193.6875 137.980469 193.394531 137.265625 C 193.097656 136.554688 192.875 135.816406 192.726562 135.0625 C 192.574219 134.304688 192.5 133.539062 192.5 132.769531 C 192.5 131.996094 192.574219 131.234375 192.726562 130.476562 C 192.875 129.71875 193.097656 128.984375 193.394531 128.269531 C 193.6875 127.558594 194.050781 126.882812 194.480469 126.238281 C 194.910156 125.597656 195.394531 125.003906 195.941406 124.457031 C 196.488281 123.914062 197.082031 123.425781 197.722656 122.996094 C 198.363281 122.566406 199.042969 122.207031 199.753906 121.910156 C 200.46875 121.617188 201.203125 121.390625 201.957031 121.242188 C 202.714844 121.089844 203.480469 121.015625 204.25 121.015625 Z M 204.25 121.015625 " fill-opacity="1" fill-rule="nonzero"/><path fill="#ffffff" d="M 223.640625 168.78125 C 228.234375 173.375 235.671875 173.375 240.265625 168.78125 C 244.855469 164.191406 244.855469 156.75 240.265625 152.160156 C 235.671875 147.566406 228.234375 147.566406 223.640625 152.160156 C 219.050781 156.75 219.050781 164.191406 223.640625 168.78125 Z M 223.640625 168.78125 " fill-opacity="1" fill-rule="nonzero"/><path fill="#ffffff" d="M 112.828125 113.375 C 117.417969 117.96875 124.859375 117.96875 129.449219 113.375 C 134.042969 108.785156 134.042969 101.34375 129.449219 96.75 C 124.859375 92.160156 117.417969 92.160156 112.828125 96.75 C 108.234375 101.34375 108.234375 108.785156 112.828125 113.375 Z M 112.828125 113.375 " fill-opacity="1" fill-rule="nonzero"/><path fill="#ffffff" d="M 148.839844 121.015625 C 149.613281 121.015625 150.375 121.089844 151.132812 121.242188 C 151.890625 121.390625 152.625 121.617188 153.339844 121.910156 C 154.050781 122.207031 154.726562 122.566406 155.371094 122.996094 C 156.011719 123.425781 156.605469 123.914062 157.152344 124.457031 C 157.695312 125.003906 158.183594 125.597656 158.613281 126.238281 C 159.042969 126.882812 159.402344 127.558594 159.699219 128.269531 C 159.992188 128.984375 160.21875 129.71875 160.367188 130.476562 C 160.519531 131.234375 160.59375 131.996094 160.59375 132.769531 C 160.59375 133.539062 160.519531 134.304688 160.367188 135.0625 C 160.21875 135.816406 159.992188 136.554688 159.699219 137.265625 C 159.402344 137.980469 159.042969 138.65625 158.613281 139.296875 C 158.183594 139.941406 157.695312 140.53125 157.152344 141.078125 C 156.605469 141.625 156.011719 142.113281 155.371094 142.539062 C 154.726562 142.96875 154.050781 143.332031 153.339844 143.625 C 152.625 143.921875 151.890625 144.144531 151.132812 144.296875 C 150.375 144.445312 149.613281 144.519531 148.839844 144.519531 C 148.070312 144.519531 147.304688 144.445312 146.546875 144.296875 C 145.792969 144.144531 145.054688 143.921875 144.34375 143.625 C 143.628906 143.332031 142.953125 142.96875 142.3125 142.539062 C 141.667969 142.113281 141.074219 141.625 140.53125 141.078125 C 139.984375 140.53125 139.496094 139.941406 139.070312 139.296875 C 138.640625 138.65625 138.277344 137.980469 137.984375 137.265625 C 137.6875 136.554688 137.464844 135.816406 137.3125 135.0625 C 137.164062 134.304688 137.089844 133.539062 137.089844 132.769531 C 137.089844 131.996094 137.164062 131.234375 137.3125 130.476562 C 137.464844 129.71875 137.6875 128.984375 137.984375 128.269531 C 138.277344 127.558594 138.640625 126.882812 139.070312 126.238281 C 139.496094 125.597656 139.984375 125.003906 140.53125 124.457031 C 141.074219 123.914062 141.667969 123.425781 142.3125 122.996094 C 142.953125 122.566406 143.628906 122.207031 144.34375 121.910156 C 145.054688 121.617188 145.792969 121.390625 146.546875 121.242188 C 147.304688 121.089844 148.070312 121.015625 148.839844 121.015625 Z M 148.839844 121.015625 " fill-opacity="1" fill-rule="nonzero"/><path fill="#ffffff" d="M 176.546875 148.71875 C 177.316406 148.71875 178.082031 148.792969 178.839844 148.945312 C 179.597656 149.09375 180.332031 149.316406 181.042969 149.613281 C 181.757812 149.90625 182.433594 150.269531 183.074219 150.699219 C 183.71875 151.128906 184.3125 151.613281 184.855469 152.160156 C 185.402344 152.707031 185.890625 153.300781 186.316406 153.941406 C 186.746094 154.582031 187.109375 155.261719 187.402344 155.972656 C 187.699219 156.6875 187.921875 157.421875 188.074219 158.179688 C 188.222656 158.933594 188.296875 159.699219 188.296875 160.46875 C 188.296875 161.242188 188.222656 162.007812 188.074219 162.761719 C 187.921875 163.519531 187.699219 164.253906 187.402344 164.96875 C 187.109375 165.679688 186.746094 166.359375 186.316406 167 C 185.890625 167.640625 185.402344 168.234375 184.855469 168.78125 C 184.3125 169.328125 183.71875 169.8125 183.074219 170.242188 C 182.433594 170.671875 181.757812 171.035156 181.042969 171.328125 C 180.332031 171.625 179.597656 171.847656 178.839844 171.996094 C 178.082031 172.148438 177.316406 172.222656 176.546875 172.222656 C 175.773438 172.222656 175.011719 172.148438 174.253906 171.996094 C 173.496094 171.847656 172.761719 171.625 172.046875 171.328125 C 171.335938 171.035156 170.660156 170.671875 170.015625 170.242188 C 169.375 169.8125 168.78125 169.328125 168.234375 168.78125 C 167.691406 168.234375 167.203125 167.640625 166.773438 167 C 166.34375 166.359375 165.984375 165.679688 165.6875 164.96875 C 165.394531 164.253906 165.171875 163.519531 165.019531 162.761719 C 164.867188 162.007812 164.792969 161.242188 164.792969 160.46875 C 164.792969 159.699219 164.867188 158.933594 165.019531 158.179688 C 165.171875 157.421875 165.394531 156.6875 165.6875 155.972656 C 165.984375 155.261719 166.34375 154.582031 166.773438 153.941406 C 167.203125 153.300781 167.691406 152.707031 168.234375 152.160156 C 168.78125 151.613281 169.375 151.128906 170.015625 150.699219 C 170.660156 150.269531 171.335938 149.90625 172.046875 149.613281 C 172.761719 149.316406 173.496094 149.09375 174.253906 148.945312 C 175.011719 148.792969 175.773438 148.71875 176.546875 148.71875 Z M 176.546875 148.71875 " fill-opacity="1" fill-rule="nonzero"/><path fill="#ffffff" d="M 204.25 176.421875 C 205.023438 176.421875 205.789062 176.5 206.542969 176.648438 C 207.300781 176.800781 208.035156 177.023438 208.75 177.316406 C 209.460938 177.613281 210.140625 177.976562 210.78125 178.402344 C 211.421875 178.832031 212.015625 179.320312 212.5625 179.867188 C 213.105469 180.410156 213.59375 181.003906 214.023438 181.648438 C 214.453125 182.289062 214.8125 182.964844 215.109375 183.679688 C 215.40625 184.390625 215.628906 185.125 215.777344 185.882812 C 215.929688 186.640625 216.003906 187.40625 216.003906 188.175781 C 216.003906 188.949219 215.929688 189.710938 215.777344 190.46875 C 215.628906 191.226562 215.40625 191.960938 215.109375 192.671875 C 214.8125 193.386719 214.453125 194.0625 214.023438 194.707031 C 213.59375 195.347656 213.105469 195.941406 212.5625 196.484375 C 212.015625 197.03125 211.421875 197.519531 210.78125 197.949219 C 210.140625 198.375 209.460938 198.738281 208.75 199.035156 C 208.035156 199.328125 207.300781 199.550781 206.542969 199.703125 C 205.789062 199.851562 205.023438 199.929688 204.25 199.929688 C 203.480469 199.929688 202.714844 199.851562 201.957031 199.703125 C 201.203125 199.550781 200.46875 199.328125 199.753906 199.035156 C 199.042969 198.738281 198.363281 198.375 197.722656 197.949219 C 197.082031 197.519531 196.488281 197.03125 195.941406 196.484375 C 195.394531 195.941406 194.910156 195.347656 194.480469 194.707031 C 194.050781 194.0625 193.6875 193.386719 193.394531 192.671875 C 193.097656 191.960938 192.875 191.226562 192.726562 190.46875 C 192.574219 189.710938 192.5 188.949219 192.5 188.175781 C 192.5 187.40625 192.574219 186.640625 192.726562 185.882812 C 192.875 185.125 193.097656 184.390625 193.394531 183.679688 C 193.6875 182.964844 194.050781 182.289062 194.480469 181.648438 C 194.910156 181.003906 195.394531 180.410156 195.941406 179.867188 C 196.488281 179.320312 197.082031 178.832031 197.722656 178.402344 C 198.363281 177.976562 199.042969 177.613281 199.753906 177.316406 C 200.46875 177.023438 201.203125 176.800781 201.957031 176.648438 C 202.714844 176.5 203.480469 176.421875 204.25 176.421875 Z M 204.25 176.421875 " fill-opacity="1" fill-rule="nonzero"/><path fill="#ffffff" d="M 223.640625 224.191406 C 228.234375 228.78125 235.671875 228.78125 240.265625 224.191406 C 244.855469 219.597656 244.855469 212.15625 240.265625 207.566406 C 235.671875 202.972656 228.234375 202.972656 223.640625 207.566406 C 219.050781 212.15625 219.050781 219.597656 223.640625 224.191406 Z M 223.640625 224.191406 " fill-opacity="1" fill-rule="nonzero"/><path fill="#ffffff" d="M 93.433594 121.015625 C 94.203125 121.015625 94.96875 121.089844 95.726562 121.242188 C 96.484375 121.390625 97.21875 121.617188 97.929688 121.910156 C 98.644531 122.207031 99.320312 122.566406 99.960938 122.996094 C 100.605469 123.425781 101.199219 123.914062 101.742188 124.457031 C 102.289062 125.003906 102.777344 125.597656 103.207031 126.238281 C 103.632812 126.882812 103.996094 127.558594 104.292969 128.269531 C 104.585938 128.984375 104.808594 129.71875 104.960938 130.476562 C 105.109375 131.234375 105.1875 131.996094 105.1875 132.769531 C 105.1875 133.539062 105.109375 134.304688 104.960938 135.0625 C 104.808594 135.816406 104.585938 136.554688 104.292969 137.265625 C 103.996094 137.980469 103.632812 138.65625 103.207031 139.296875 C 102.777344 139.941406 102.289062 140.53125 101.742188 141.078125 C 101.199219 141.625 100.605469 142.113281 99.960938 142.539062 C 99.320312 142.96875 98.644531 143.332031 97.929688 143.625 C 97.21875 143.921875 96.484375 144.144531 95.726562 144.296875 C 94.96875 144.445312 94.203125 144.519531 93.433594 144.519531 C 92.660156 144.519531 91.898438 144.445312 91.140625 144.296875 C 90.382812 144.144531 89.648438 143.921875 88.9375 143.625 C 88.222656 143.332031 87.546875 142.96875 86.902344 142.539062 C 86.261719 142.113281 85.667969 141.625 85.121094 141.078125 C 84.578125 140.53125 84.089844 139.941406 83.660156 139.296875 C 83.234375 138.65625 82.871094 137.980469 82.574219 137.265625 C 82.28125 136.554688 82.058594 135.816406 81.90625 135.0625 C 81.757812 134.304688 81.679688 133.539062 81.679688 132.769531 C 81.679688 131.996094 81.757812 131.234375 81.90625 130.476562 C 82.058594 129.71875 82.28125 128.984375 82.574219 128.269531 C 82.871094 127.558594 83.234375 126.882812 83.660156 126.238281 C 84.089844 125.597656 84.578125 125.003906 85.121094 124.457031 C 85.667969 123.914062 86.261719 123.425781 86.902344 122.996094 C 87.546875 122.566406 88.222656 122.207031 88.9375 121.910156 C 89.648438 121.617188 90.382812 121.390625 91.140625 121.242188 C 91.898438 121.089844 92.660156 121.015625 93.433594 121.015625 Z M 93.433594 121.015625 " fill-opacity="1" fill-rule="nonzero"/><path fill="#ffffff" d="M 112.828125 168.78125 C 117.417969 173.375 124.859375 173.375 129.449219 168.78125 C 134.042969 164.191406 134.042969 156.75 129.449219 152.160156 C 124.859375 147.566406 117.417969 147.566406 112.828125 152.160156 C 108.234375 156.75 108.234375 164.191406 112.828125 168.78125 Z M 112.828125 168.78125 " fill-opacity="1" fill-rule="nonzero"/><path fill="#ffffff" d="M 65.726562 148.71875 C 66.5 148.71875 67.265625 148.792969 68.019531 148.945312 C 68.777344 149.09375 69.511719 149.316406 70.226562 149.613281 C 70.9375 149.90625 71.617188 150.269531 72.257812 150.699219 C 72.898438 151.128906 73.492188 151.613281 74.039062 152.160156 C 74.582031 152.707031 75.070312 153.300781 75.5 153.941406 C 75.929688 154.582031 76.289062 155.261719 76.585938 155.972656 C 76.882812 156.6875 77.105469 157.421875 77.253906 158.179688 C 77.40625 158.933594 77.480469 159.699219 77.480469 160.46875 C 77.480469 161.242188 77.40625 162.007812 77.253906 162.761719 C 77.105469 163.519531 76.882812 164.253906 76.585938 164.96875 C 76.289062 165.679688 75.929688 166.359375 75.5 167 C 75.070312 167.640625 74.582031 168.234375 74.039062 168.78125 C 73.492188 169.328125 72.898438 169.8125 72.257812 170.242188 C 71.617188 170.671875 70.9375 171.035156 70.226562 171.328125 C 69.511719 171.625 68.777344 171.847656 68.019531 171.996094 C 67.265625 172.148438 66.5 172.222656 65.726562 172.222656 C 64.957031 172.222656 64.191406 172.148438 63.433594 171.996094 C 62.679688 171.847656 61.941406 171.625 61.230469 171.328125 C 60.515625 171.035156 59.839844 170.671875 59.199219 170.242188 C 58.558594 169.8125 57.964844 169.328125 57.417969 168.78125 C 56.871094 168.234375 56.382812 167.640625 55.957031 167 C 55.527344 166.359375 55.164062 165.679688 54.871094 164.96875 C 54.574219 164.253906 54.351562 163.519531 54.203125 162.761719 C 54.050781 162.007812 53.976562 161.242188 53.976562 160.46875 C 53.976562 159.699219 54.050781 158.933594 54.203125 158.179688 C 54.351562 157.421875 54.574219 156.6875 54.871094 155.972656 C 55.164062 155.261719 55.527344 154.582031 55.957031 153.941406 C 56.382812 153.300781 56.871094 152.707031 57.417969 152.160156 C 57.964844 151.613281 58.558594 151.128906 59.199219 150.699219 C 59.839844 150.269531 60.515625 149.90625 61.230469 149.613281 C 61.941406 149.316406 62.679688 149.09375 63.433594 148.945312 C 64.191406 148.792969 64.957031 148.71875 65.726562 148.71875 Z M 65.726562 148.71875 " fill-opacity="1" fill-rule="nonzero"/><path fill="#ffffff" d="M 93.433594 176.421875 C 94.203125 176.421875 94.96875 176.5 95.726562 176.648438 C 96.484375 176.800781 97.21875 177.023438 97.929688 177.316406 C 98.644531 177.613281 99.320312 177.976562 99.960938 178.402344 C 100.605469 178.832031 101.199219 179.320312 101.742188 179.867188 C 102.289062 180.410156 102.777344 181.003906 103.207031 181.648438 C 103.632812 182.289062 103.996094 182.964844 104.292969 183.679688 C 104.585938 184.390625 104.808594 185.125 104.960938 185.882812 C 105.109375 186.640625 105.1875 187.40625 105.1875 188.175781 C 105.1875 188.949219 105.109375 189.710938 104.960938 190.46875 C 104.808594 191.226562 104.585938 191.960938 104.292969 192.671875 C 103.996094 193.386719 103.632812 194.0625 103.207031 194.707031 C 102.777344 195.347656 102.289062 195.941406 101.742188 196.484375 C 101.199219 197.03125 100.605469 197.519531 99.960938 197.949219 C 99.320312 198.375 98.644531 198.738281 97.929688 199.035156 C 97.21875 199.328125 96.484375 199.550781 95.726562 199.703125 C 94.96875 199.851562 94.203125 199.929688 93.433594 199.929688 C 92.660156 199.929688 91.898438 199.851562 91.140625 199.703125 C 90.382812 199.550781 89.648438 199.328125 88.9375 199.035156 C 88.222656 198.738281 87.546875 198.375 86.902344 197.949219 C 86.261719 197.519531 85.667969 197.03125 85.121094 196.484375 C 84.578125 195.941406 84.089844 195.347656 83.660156 194.707031 C 83.234375 194.0625 82.871094 193.386719 82.574219 192.671875 C 82.28125 191.960938 82.058594 191.226562 81.90625 190.46875 C 81.757812 189.710938 81.679688 188.949219 81.679688 188.175781 C 81.679688 187.40625 81.757812 186.640625 81.90625 185.882812 C 82.058594 185.125 82.28125 184.390625 82.574219 183.679688 C 82.871094 182.964844 83.234375 182.289062 83.660156 181.648438 C 84.089844 181.003906 84.578125 180.410156 85.121094 179.867188 C 85.667969 179.320312 86.261719 178.832031 86.902344 178.402344 C 87.546875 177.976562 88.222656 177.613281 88.9375 177.316406 C 89.648438 177.023438 90.382812 176.800781 91.140625 176.648438 C 91.898438 176.5 92.660156 176.421875 93.433594 176.421875 Z M 93.433594 176.421875 " fill-opacity="1" fill-rule="nonzero"/><path fill="#ffffff" d="M 57.417969 224.191406 C 62.011719 228.78125 69.453125 228.78125 74.042969 224.191406 C 78.636719 219.597656 78.636719 212.15625 74.042969 207.566406 C 69.453125 202.972656 62.011719 202.972656 57.417969 207.566406 C 52.828125 212.15625 52.828125 219.601562 57.417969 224.191406 Z M 57.417969 224.191406 " fill-opacity="1" fill-rule="nonzero"/></svg>