<svg xmlns="http://www.w3.org/2000/svg" xmlns:xlink="http://www.w3.org/1999/xlink" width="1218" zoomAndPan="magnify" viewBox="0 0 913.5 275.25" height="367" preserveAspectRatio="xMidYMid meet" version="1.0"><defs><g/><clipPath id="79954962f9"><path d="M 0.992188 31 L 314.386719 31 L 314.386719 243.324219 L 0.992188 243.324219 Z M 0.992188 31 " clip-rule="nonzero"/></clipPath></defs><g clip-path="url(#79954962f9)"><path fill="#ffffff" d="M 314.117188 242.648438 L 143.785156 242.648438 L 228.949219 95.132812 Z M 206.203125 118.4375 L 155.945312 31.445312 L 102.433594 124.125 L 86.164062 95.933594 L 0.992188 243.457031 L 134.019531 243.457031 L 199.917969 129.308594 Z M 206.203125 118.4375 " fill-opacity="1" fill-rule="nonzero"/></g><g fill="#ffffff" fill-opacity="1"><g transform="translate(331.586694, 193.407246)"><g><path d="M 99.578125 0 L 73.8125 0 L 45.765625 -45.109375 L 36.171875 -38.21875 L 36.171875 0 L 13.46875 0 L 13.46875 -107.046875 L 36.171875 -107.046875 L 36.171875 -58.0625 C 37.679688 -60.164062 39.164062 -62.265625 40.625 -64.359375 C 42.09375 -66.460938 43.585938 -68.5625 45.109375 -70.65625 L 74.09375 -107.046875 L 99.28125 -107.046875 L 61.9375 -59.671875 Z M 99.578125 0 "/></g></g></g><g fill="#ffffff" fill-opacity="1"><g transform="translate(431.161971, 193.407246)"><g><path d="M 45.25 -83.546875 C 56.226562 -83.546875 64.644531 -81.148438 70.5 -76.359375 C 76.363281 -71.578125 79.296875 -64.304688 79.296875 -54.546875 L 79.296875 0 L 63.703125 0 L 59.375 -11.125 L 58.796875 -11.125 C 56.453125 -8.195312 54.054688 -5.804688 51.609375 -3.953125 C 49.171875 -2.097656 46.363281 -0.734375 43.1875 0.140625 C 40.019531 1.023438 36.164062 1.46875 31.625 1.46875 C 26.789062 1.46875 22.457031 0.539062 18.625 -1.3125 C 14.800781 -3.164062 11.789062 -6.007812 9.59375 -9.84375 C 7.394531 -13.675781 6.296875 -18.546875 6.296875 -24.453125 C 6.296875 -33.140625 9.347656 -39.546875 15.453125 -43.671875 C 21.554688 -47.796875 30.707031 -50.078125 42.90625 -50.515625 L 57.109375 -50.953125 L 57.109375 -54.546875 C 57.109375 -58.835938 55.984375 -61.984375 53.734375 -63.984375 C 51.492188 -65.992188 48.375 -67 44.375 -67 C 40.414062 -67 36.53125 -66.4375 32.71875 -65.3125 C 28.914062 -64.1875 25.113281 -62.769531 21.3125 -61.0625 L 13.90625 -76.140625 C 18.25 -78.441406 23.117188 -80.25 28.515625 -81.5625 C 33.910156 -82.882812 39.488281 -83.546875 45.25 -83.546875 Z M 57.109375 -37.921875 L 48.46875 -37.640625 C 41.25 -37.441406 36.234375 -36.144531 33.421875 -33.75 C 30.617188 -31.363281 29.21875 -28.21875 29.21875 -24.3125 C 29.21875 -20.894531 30.21875 -18.460938 32.21875 -17.015625 C 34.21875 -15.578125 36.828125 -14.859375 40.046875 -14.859375 C 44.828125 -14.859375 48.863281 -16.273438 52.15625 -19.109375 C 55.457031 -21.941406 57.109375 -25.96875 57.109375 -31.1875 Z M 57.109375 -37.921875 "/></g></g></g><g fill="#ffffff" fill-opacity="1"><g transform="translate(521.731563, 193.407246)"><g><path d="M 57.25 -83.390625 C 66.476562 -83.390625 73.9375 -79.800781 79.625 -72.625 C 85.3125 -65.457031 88.15625 -54.941406 88.15625 -41.078125 C 88.15625 -31.804688 86.8125 -24.007812 84.125 -17.6875 C 81.445312 -11.363281 77.738281 -6.585938 73 -3.359375 C 68.257812 -0.140625 62.816406 1.46875 56.671875 1.46875 C 52.710938 1.46875 49.316406 0.96875 46.484375 -0.03125 C 43.660156 -1.03125 41.25 -2.320312 39.25 -3.90625 C 37.25 -5.5 35.515625 -7.195312 34.046875 -9 L 32.875 -9 C 33.269531 -7.050781 33.5625 -5.050781 33.75 -3 C 33.945312 -0.945312 34.046875 1.050781 34.046875 3 L 34.046875 36.03125 L 11.71875 36.03125 L 11.71875 -81.859375 L 29.875 -81.859375 L 33.015625 -71.25 L 34.046875 -71.25 C 35.515625 -73.4375 37.296875 -75.457031 39.390625 -77.3125 C 41.492188 -79.175781 44.019531 -80.65625 46.96875 -81.75 C 49.925781 -82.84375 53.351562 -83.390625 57.25 -83.390625 Z M 50.078125 -65.53125 C 46.171875 -65.53125 43.070312 -64.722656 40.78125 -63.109375 C 38.488281 -61.503906 36.816406 -59.085938 35.765625 -55.859375 C 34.710938 -52.640625 34.140625 -48.566406 34.046875 -43.640625 L 34.046875 -41.21875 C 34.046875 -35.945312 34.546875 -31.476562 35.546875 -27.8125 C 36.546875 -24.15625 38.226562 -21.375 40.59375 -19.46875 C 42.96875 -17.570312 46.226562 -16.625 50.375 -16.625 C 53.789062 -16.625 56.597656 -17.570312 58.796875 -19.46875 C 60.992188 -21.375 62.640625 -24.171875 63.734375 -27.859375 C 64.835938 -31.546875 65.390625 -36.050781 65.390625 -41.375 C 65.390625 -49.375 64.144531 -55.398438 61.65625 -59.453125 C 59.164062 -63.503906 55.304688 -65.53125 50.078125 -65.53125 Z M 50.078125 -65.53125 "/></g></g></g><g fill="#ffffff" fill-opacity="1"><g transform="translate(616.620945, 193.407246)"><g><path d="M 34.046875 -81.859375 L 34.046875 0 L 11.71875 0 L 11.71875 -81.859375 Z M 22.921875 -113.921875 C 26.234375 -113.921875 29.085938 -113.148438 31.484375 -111.609375 C 33.878906 -110.078125 35.078125 -107.210938 35.078125 -103.015625 C 35.078125 -98.867188 33.878906 -96 31.484375 -94.40625 C 29.085938 -92.820312 26.234375 -92.03125 22.921875 -92.03125 C 19.546875 -92.03125 16.675781 -92.820312 14.3125 -94.40625 C 11.945312 -96 10.765625 -98.867188 10.765625 -103.015625 C 10.765625 -107.210938 11.945312 -110.078125 14.3125 -111.609375 C 16.675781 -113.148438 19.546875 -113.921875 22.921875 -113.921875 Z M 22.921875 -113.921875 "/></g></g></g><g fill="#ffffff" fill-opacity="1"><g transform="translate(662.381664, 193.407246)"><g><path d="M 46.203125 -16.328125 C 48.640625 -16.328125 51.015625 -16.570312 53.328125 -17.0625 C 55.648438 -17.550781 57.960938 -18.160156 60.265625 -18.890625 L 60.265625 -2.265625 C 57.867188 -1.191406 54.898438 -0.300781 51.359375 0.40625 C 47.828125 1.113281 43.960938 1.46875 39.765625 1.46875 C 34.878906 1.46875 30.492188 0.675781 26.609375 -0.90625 C 22.734375 -2.5 19.679688 -5.257812 17.453125 -9.1875 C 15.234375 -13.113281 14.125 -18.59375 14.125 -25.625 L 14.125 -65.09375 L 3.4375 -65.09375 L 3.4375 -74.53125 L 15.734375 -82 L 22.1875 -99.28125 L 36.46875 -99.28125 L 36.46875 -81.859375 L 59.375 -81.859375 L 59.375 -65.09375 L 36.46875 -65.09375 L 36.46875 -25.625 C 36.46875 -22.5 37.359375 -20.164062 39.140625 -18.625 C 40.921875 -17.09375 43.273438 -16.328125 46.203125 -16.328125 Z M 46.203125 -16.328125 "/></g></g></g><g fill="#ffffff" fill-opacity="1"><g transform="translate(727.4717, 193.407246)"><g><path d="M 45.25 -83.546875 C 56.226562 -83.546875 64.644531 -81.148438 70.5 -76.359375 C 76.363281 -71.578125 79.296875 -64.304688 79.296875 -54.546875 L 79.296875 0 L 63.703125 0 L 59.375 -11.125 L 58.796875 -11.125 C 56.453125 -8.195312 54.054688 -5.804688 51.609375 -3.953125 C 49.171875 -2.097656 46.363281 -0.734375 43.1875 0.140625 C 40.019531 1.023438 36.164062 1.46875 31.625 1.46875 C 26.789062 1.46875 22.457031 0.539062 18.625 -1.3125 C 14.800781 -3.164062 11.789062 -6.007812 9.59375 -9.84375 C 7.394531 -13.675781 6.296875 -18.546875 6.296875 -24.453125 C 6.296875 -33.140625 9.347656 -39.546875 15.453125 -43.671875 C 21.554688 -47.796875 30.707031 -50.078125 42.90625 -50.515625 L 57.109375 -50.953125 L 57.109375 -54.546875 C 57.109375 -58.835938 55.984375 -61.984375 53.734375 -63.984375 C 51.492188 -65.992188 48.375 -67 44.375 -67 C 40.414062 -67 36.53125 -66.4375 32.71875 -65.3125 C 28.914062 -64.1875 25.113281 -62.769531 21.3125 -61.0625 L 13.90625 -76.140625 C 18.25 -78.441406 23.117188 -80.25 28.515625 -81.5625 C 33.910156 -82.882812 39.488281 -83.546875 45.25 -83.546875 Z M 57.109375 -37.921875 L 48.46875 -37.640625 C 41.25 -37.441406 36.234375 -36.144531 33.421875 -33.75 C 30.617188 -31.363281 29.21875 -28.21875 29.21875 -24.3125 C 29.21875 -20.894531 30.21875 -18.460938 32.21875 -17.015625 C 34.21875 -15.578125 36.828125 -14.859375 40.046875 -14.859375 C 44.828125 -14.859375 48.863281 -16.273438 52.15625 -19.109375 C 55.457031 -21.941406 57.109375 -25.96875 57.109375 -31.1875 Z M 57.109375 -37.921875 "/></g></g></g><g fill="#ffffff" fill-opacity="1"><g transform="translate(818.041292, 193.407246)"><g><path d="M 34.046875 0 L 11.71875 0 L 11.71875 -113.921875 L 34.046875 -113.921875 Z M 34.046875 0 "/></g></g></g></svg>