<svg xmlns="http://www.w3.org/2000/svg" xmlns:xlink="http://www.w3.org/1999/xlink" width="1400" zoomAndPan="magnify" viewBox="0 0 1050 599.999999" height="800" preserveAspectRatio="xMidYMid meet" version="1.0"><defs><g/><clipPath id="0f8efdef40"><path d="M 92.394531 193.441406 L 406.644531 193.441406 L 406.644531 406.441406 L 92.394531 406.441406 Z M 92.394531 193.441406 " clip-rule="nonzero"/></clipPath></defs><g clip-path="url(#0f8efdef40)"><path fill="#000000" d="M 406.644531 405.648438 L 235.695312 405.648438 L 321.167969 257.8125 Z M 298.339844 281.167969 L 247.902344 193.984375 L 194.199219 286.867188 L 177.871094 258.613281 L 92.394531 406.457031 L 225.898438 406.457031 L 292.03125 292.0625 Z M 298.339844 281.167969 " fill-opacity="1" fill-rule="nonzero"/></g><g fill="#000000" fill-opacity="1"><g transform="translate(423.889062, 356.38945)"><g><path d="M 99.84375 0 L 74 0 L 45.890625 -45.21875 L 36.265625 -38.328125 L 36.265625 0 L 13.515625 0 L 13.515625 -107.34375 L 36.265625 -107.34375 L 36.265625 -58.21875 C 37.785156 -60.320312 39.28125 -62.425781 40.75 -64.53125 C 42.21875 -66.632812 43.707031 -68.738281 45.21875 -70.84375 L 74.296875 -107.34375 L 99.546875 -107.34375 L 62.109375 -59.828125 Z M 99.84375 0 "/></g></g></g><g fill="#000000" fill-opacity="1"><g transform="translate(523.735662, 356.38945)"><g><path d="M 45.375 -83.765625 C 56.382812 -83.765625 64.828125 -81.363281 70.703125 -76.5625 C 76.578125 -71.769531 79.515625 -64.484375 79.515625 -54.703125 L 79.515625 0 L 63.875 0 L 59.546875 -11.15625 L 58.953125 -11.15625 C 56.609375 -8.21875 54.210938 -5.816406 51.765625 -3.953125 C 49.316406 -2.097656 46.5 -0.734375 43.3125 0.140625 C 40.132812 1.023438 36.269531 1.46875 31.71875 1.46875 C 26.875 1.46875 22.53125 0.539062 18.6875 -1.3125 C 14.84375 -3.175781 11.816406 -6.03125 9.609375 -9.875 C 7.410156 -13.71875 6.3125 -18.597656 6.3125 -24.515625 C 6.3125 -33.234375 9.367188 -39.660156 15.484375 -43.796875 C 21.609375 -47.929688 30.785156 -50.21875 43.015625 -50.65625 L 57.265625 -51.09375 L 57.265625 -54.703125 C 57.265625 -59.003906 56.140625 -62.15625 53.890625 -64.15625 C 51.640625 -66.164062 48.503906 -67.171875 44.484375 -67.171875 C 40.523438 -67.171875 36.632812 -66.609375 32.8125 -65.484375 C 29 -64.359375 25.179688 -62.941406 21.359375 -61.234375 L 13.953125 -76.359375 C 18.304688 -78.660156 23.1875 -80.46875 28.59375 -81.78125 C 34 -83.101562 39.59375 -83.765625 45.375 -83.765625 Z M 57.265625 -38.03125 L 48.609375 -37.734375 C 41.359375 -37.535156 36.328125 -36.238281 33.515625 -33.84375 C 30.703125 -31.445312 29.296875 -28.289062 29.296875 -24.375 C 29.296875 -20.945312 30.296875 -18.507812 32.296875 -17.0625 C 34.304688 -15.625 36.925781 -14.90625 40.15625 -14.90625 C 44.957031 -14.90625 49.007812 -16.320312 52.3125 -19.15625 C 55.613281 -22 57.265625 -26.039062 57.265625 -31.28125 Z M 57.265625 -38.03125 "/></g></g></g><g fill="#000000" fill-opacity="1"><g transform="translate(614.552038, 356.38945)"><g><path d="M 57.40625 -83.625 C 66.65625 -83.625 74.128906 -80.023438 79.828125 -72.828125 C 85.535156 -65.628906 88.390625 -55.082031 88.390625 -41.1875 C 88.390625 -31.882812 87.039062 -24.0625 84.34375 -17.71875 C 81.65625 -11.382812 77.9375 -6.601562 73.1875 -3.375 C 68.445312 -0.144531 62.992188 1.46875 56.828125 1.46875 C 52.859375 1.46875 49.453125 0.96875 46.609375 -0.03125 C 43.773438 -1.039062 41.351562 -2.335938 39.34375 -3.921875 C 37.34375 -5.515625 35.609375 -7.21875 34.140625 -9.03125 L 32.96875 -9.03125 C 33.351562 -7.070312 33.644531 -5.0625 33.84375 -3 C 34.039062 -0.945312 34.140625 1.054688 34.140625 3.015625 L 34.140625 36.125 L 11.75 36.125 L 11.75 -82.078125 L 29.953125 -82.078125 L 33.109375 -71.4375 L 34.140625 -71.4375 C 35.609375 -73.632812 37.394531 -75.660156 39.5 -77.515625 C 41.601562 -79.378906 44.132812 -80.863281 47.09375 -81.96875 C 50.0625 -83.070312 53.5 -83.625 57.40625 -83.625 Z M 50.21875 -65.703125 C 46.300781 -65.703125 43.191406 -64.894531 40.890625 -63.28125 C 38.585938 -61.664062 36.910156 -59.242188 35.859375 -56.015625 C 34.804688 -52.785156 34.234375 -48.695312 34.140625 -43.75 L 34.140625 -41.328125 C 34.140625 -36.046875 34.640625 -31.566406 35.640625 -27.890625 C 36.648438 -24.222656 38.335938 -21.4375 40.703125 -19.53125 C 43.078125 -17.625 46.347656 -16.671875 50.515625 -16.671875 C 53.941406 -16.671875 56.753906 -17.625 58.953125 -19.53125 C 61.160156 -21.4375 62.8125 -24.238281 63.90625 -27.9375 C 65.007812 -31.632812 65.5625 -36.148438 65.5625 -41.484375 C 65.5625 -49.503906 64.3125 -55.546875 61.8125 -59.609375 C 59.320312 -63.671875 55.457031 -65.703125 50.21875 -65.703125 Z M 50.21875 -65.703125 "/></g></g></g><g fill="#000000" fill-opacity="1"><g transform="translate(709.699973, 356.38945)"><g><path d="M 34.140625 -82.078125 L 34.140625 0 L 11.75 0 L 11.75 -82.078125 Z M 22.984375 -114.234375 C 26.304688 -114.234375 29.164062 -113.460938 31.5625 -111.921875 C 33.96875 -110.378906 35.171875 -107.503906 35.171875 -103.296875 C 35.171875 -99.140625 33.96875 -96.265625 31.5625 -94.671875 C 29.164062 -93.078125 26.304688 -92.28125 22.984375 -92.28125 C 19.597656 -92.28125 16.71875 -93.078125 14.34375 -94.671875 C 11.976562 -96.265625 10.796875 -99.140625 10.796875 -103.296875 C 10.796875 -107.503906 11.976562 -110.378906 14.34375 -111.921875 C 16.71875 -113.460938 19.597656 -114.234375 22.984375 -114.234375 Z M 22.984375 -114.234375 "/></g></g></g><g fill="#000000" fill-opacity="1"><g transform="translate(755.58538, 356.38945)"><g><path d="M 46.328125 -16.375 C 48.773438 -16.375 51.160156 -16.617188 53.484375 -17.109375 C 55.804688 -17.597656 58.117188 -18.207031 60.421875 -18.9375 L 60.421875 -2.28125 C 58.023438 -1.195312 55.050781 -0.300781 51.5 0.40625 C 47.957031 1.113281 44.078125 1.46875 39.859375 1.46875 C 34.972656 1.46875 30.582031 0.675781 26.6875 -0.90625 C 22.789062 -2.5 19.726562 -5.265625 17.5 -9.203125 C 15.28125 -13.148438 14.171875 -18.648438 14.171875 -25.703125 L 14.171875 -65.265625 L 3.453125 -65.265625 L 3.453125 -74.734375 L 15.78125 -82.234375 L 22.25 -99.546875 L 36.5625 -99.546875 L 36.5625 -82.078125 L 59.546875 -82.078125 L 59.546875 -65.265625 L 36.5625 -65.265625 L 36.5625 -25.703125 C 36.5625 -22.566406 37.453125 -20.226562 39.234375 -18.6875 C 41.023438 -17.144531 43.390625 -16.375 46.328125 -16.375 Z M 46.328125 -16.375 "/></g></g></g><g fill="#000000" fill-opacity="1"><g transform="translate(820.852773, 356.38945)"><g><path d="M 45.375 -83.765625 C 56.382812 -83.765625 64.828125 -81.363281 70.703125 -76.5625 C 76.578125 -71.769531 79.515625 -64.484375 79.515625 -54.703125 L 79.515625 0 L 63.875 0 L 59.546875 -11.15625 L 58.953125 -11.15625 C 56.609375 -8.21875 54.210938 -5.816406 51.765625 -3.953125 C 49.316406 -2.097656 46.5 -0.734375 43.3125 0.140625 C 40.132812 1.023438 36.269531 1.46875 31.71875 1.46875 C 26.875 1.46875 22.53125 0.539062 18.6875 -1.3125 C 14.84375 -3.175781 11.816406 -6.03125 9.609375 -9.875 C 7.410156 -13.71875 6.3125 -18.597656 6.3125 -24.515625 C 6.3125 -33.234375 9.367188 -39.660156 15.484375 -43.796875 C 21.609375 -47.929688 30.785156 -50.21875 43.015625 -50.65625 L 57.265625 -51.09375 L 57.265625 -54.703125 C 57.265625 -59.003906 56.140625 -62.15625 53.890625 -64.15625 C 51.640625 -66.164062 48.503906 -67.171875 44.484375 -67.171875 C 40.523438 -67.171875 36.632812 -66.609375 32.8125 -65.484375 C 29 -64.359375 25.179688 -62.941406 21.359375 -61.234375 L 13.953125 -76.359375 C 18.304688 -78.660156 23.1875 -80.46875 28.59375 -81.78125 C 34 -83.101562 39.59375 -83.765625 45.375 -83.765625 Z M 57.265625 -38.03125 L 48.609375 -37.734375 C 41.359375 -37.535156 36.328125 -36.238281 33.515625 -33.84375 C 30.703125 -31.445312 29.296875 -28.289062 29.296875 -24.375 C 29.296875 -20.945312 30.296875 -18.507812 32.296875 -17.0625 C 34.304688 -15.625 36.925781 -14.90625 40.15625 -14.90625 C 44.957031 -14.90625 49.007812 -16.320312 52.3125 -19.15625 C 55.613281 -22 57.265625 -26.039062 57.265625 -31.28125 Z M 57.265625 -38.03125 "/></g></g></g><g fill="#000000" fill-opacity="1"><g transform="translate(911.669149, 356.38945)"><g><path d="M 34.140625 0 L 11.75 0 L 11.75 -114.234375 L 34.140625 -114.234375 Z M 34.140625 0 "/></g></g></g></svg>