<svg xmlns="http://www.w3.org/2000/svg" xmlns:xlink="http://www.w3.org/1999/xlink" width="1198" zoomAndPan="magnify" viewBox="0 0 898.5 275.25" height="367" preserveAspectRatio="xMidYMid meet" version="1.0"><defs><g/><clipPath id="72c795d1f5"><path d="M 108 32.824219 L 139 32.824219 L 139 63 L 108 63 Z M 108 32.824219 " clip-rule="nonzero"/></clipPath></defs><g clip-path="url(#72c795d1f5)"><path fill="#ffffff" d="M 123.722656 32.867188 C 124.710938 32.867188 125.6875 32.964844 126.652344 33.15625 C 127.621094 33.347656 128.5625 33.632812 129.472656 34.011719 C 130.382812 34.386719 131.25 34.851562 132.070312 35.398438 C 132.890625 35.945312 133.648438 36.570312 134.347656 37.265625 C 135.042969 37.964844 135.667969 38.722656 136.214844 39.542969 C 136.761719 40.363281 137.226562 41.230469 137.605469 42.140625 C 137.980469 43.054688 138.265625 43.992188 138.457031 44.960938 C 138.652344 45.929688 138.746094 46.90625 138.746094 47.890625 C 138.746094 48.878906 138.652344 49.855469 138.457031 50.824219 C 138.265625 51.789062 137.980469 52.730469 137.605469 53.640625 C 137.226562 54.554688 136.761719 55.417969 136.214844 56.238281 C 135.667969 57.058594 135.042969 57.820312 134.347656 58.515625 C 133.648438 59.214844 132.890625 59.835938 132.070312 60.382812 C 131.25 60.933594 130.382812 61.394531 129.472656 61.773438 C 128.5625 62.152344 127.621094 62.433594 126.652344 62.628906 C 125.6875 62.820312 124.710938 62.917969 123.722656 62.917969 C 122.734375 62.917969 121.757812 62.820312 120.792969 62.628906 C 119.824219 62.433594 118.882812 62.152344 117.972656 61.773438 C 117.0625 61.394531 116.195312 60.933594 115.375 60.382812 C 114.554688 59.835938 113.796875 59.214844 113.097656 58.515625 C 112.402344 57.820312 111.777344 57.058594 111.230469 56.238281 C 110.683594 55.417969 110.21875 54.554688 109.839844 53.640625 C 109.464844 52.730469 109.179688 51.789062 108.988281 50.824219 C 108.792969 49.855469 108.699219 48.878906 108.699219 47.890625 C 108.699219 46.90625 108.792969 45.929688 108.988281 44.960938 C 109.179688 43.992188 109.464844 43.054688 109.839844 42.140625 C 110.21875 41.230469 110.683594 40.363281 111.230469 39.542969 C 111.777344 38.722656 112.402344 37.964844 113.097656 37.265625 C 113.796875 36.570312 114.554688 35.945312 115.375 35.398438 C 116.195312 34.851562 117.0625 34.386719 117.972656 34.011719 C 118.882812 33.632812 119.824219 33.347656 120.792969 33.15625 C 121.757812 32.964844 122.734375 32.867188 123.722656 32.867188 Z M 123.722656 32.867188 " fill-opacity="1" fill-rule="nonzero"/></g><path fill="#ffffff" d="M 148.515625 93.933594 C 154.386719 99.804688 163.898438 99.804688 169.769531 93.933594 C 175.640625 88.0625 175.640625 78.550781 169.769531 72.679688 C 163.898438 66.8125 154.386719 66.8125 148.515625 72.679688 C 142.644531 78.550781 142.644531 88.0625 148.515625 93.933594 Z M 148.515625 93.933594 " fill-opacity="1" fill-rule="nonzero"/><path fill="#ffffff" d="M 194.5625 103.703125 C 195.546875 103.703125 196.527344 103.796875 197.492188 103.992188 C 198.460938 104.183594 199.402344 104.46875 200.3125 104.847656 C 201.222656 105.222656 202.089844 105.6875 202.910156 106.234375 C 203.730469 106.78125 204.488281 107.40625 205.1875 108.101562 C 205.882812 108.800781 206.507812 109.558594 207.054688 110.378906 C 207.601562 111.199219 208.066406 112.066406 208.445312 112.976562 C 208.820312 113.890625 209.105469 114.828125 209.296875 115.796875 C 209.492188 116.761719 209.585938 117.742188 209.585938 118.726562 C 209.585938 119.714844 209.492188 120.691406 209.296875 121.660156 C 209.105469 122.625 208.820312 123.566406 208.445312 124.476562 C 208.066406 125.386719 207.601562 126.253906 207.054688 127.074219 C 206.507812 127.894531 205.882812 128.652344 205.1875 129.351562 C 204.488281 130.050781 203.730469 130.671875 202.910156 131.21875 C 202.089844 131.769531 201.222656 132.230469 200.3125 132.609375 C 199.402344 132.984375 198.460938 133.269531 197.492188 133.464844 C 196.527344 133.65625 195.546875 133.753906 194.5625 133.75 C 193.574219 133.753906 192.597656 133.65625 191.632812 133.464844 C 190.664062 133.269531 189.722656 132.984375 188.8125 132.609375 C 187.902344 132.230469 187.035156 131.769531 186.214844 131.21875 C 185.394531 130.671875 184.636719 130.050781 183.9375 129.351562 C 183.242188 128.652344 182.617188 127.894531 182.070312 127.074219 C 181.519531 126.253906 181.058594 125.386719 180.679688 124.476562 C 180.304688 123.566406 180.019531 122.625 179.824219 121.660156 C 179.632812 120.691406 179.539062 119.714844 179.539062 118.726562 C 179.539062 117.742188 179.632812 116.761719 179.824219 115.796875 C 180.019531 114.828125 180.304688 113.890625 180.679688 112.976562 C 181.058594 112.066406 181.519531 111.199219 182.070312 110.378906 C 182.617188 109.558594 183.242188 108.800781 183.9375 108.101562 C 184.636719 107.40625 185.394531 106.78125 186.214844 106.234375 C 187.035156 105.6875 187.902344 105.222656 188.8125 104.847656 C 189.722656 104.46875 190.664062 104.183594 191.632812 103.992188 C 192.597656 103.796875 193.574219 103.703125 194.5625 103.703125 Z M 194.5625 103.703125 " fill-opacity="1" fill-rule="nonzero"/><path fill="#ffffff" d="M 219.351562 164.769531 C 225.222656 170.640625 234.734375 170.640625 240.605469 164.769531 C 246.472656 158.898438 246.472656 149.386719 240.605469 143.515625 C 234.734375 137.644531 225.222656 137.644531 219.351562 143.515625 C 213.480469 149.386719 213.480469 158.898438 219.351562 164.769531 Z M 219.351562 164.769531 " fill-opacity="1" fill-rule="nonzero"/><path fill="#ffffff" d="M 77.679688 93.933594 C 83.550781 99.804688 93.0625 99.804688 98.933594 93.933594 C 104.804688 88.0625 104.804688 78.550781 98.933594 72.679688 C 93.0625 66.8125 83.550781 66.8125 77.679688 72.679688 C 71.808594 78.550781 71.808594 88.0625 77.679688 93.933594 Z M 77.679688 93.933594 " fill-opacity="1" fill-rule="nonzero"/><path fill="#ffffff" d="M 123.722656 103.703125 C 124.710938 103.703125 125.6875 103.796875 126.652344 103.992188 C 127.621094 104.183594 128.5625 104.46875 129.472656 104.847656 C 130.382812 105.222656 131.25 105.6875 132.070312 106.234375 C 132.890625 106.78125 133.648438 107.40625 134.347656 108.101562 C 135.042969 108.800781 135.667969 109.558594 136.214844 110.378906 C 136.761719 111.199219 137.226562 112.066406 137.605469 112.976562 C 137.980469 113.890625 138.265625 114.828125 138.457031 115.796875 C 138.652344 116.761719 138.746094 117.742188 138.746094 118.726562 C 138.746094 119.714844 138.652344 120.691406 138.457031 121.660156 C 138.265625 122.625 137.980469 123.566406 137.605469 124.476562 C 137.226562 125.386719 136.761719 126.253906 136.214844 127.074219 C 135.667969 127.894531 135.042969 128.652344 134.347656 129.351562 C 133.648438 130.050781 132.890625 130.671875 132.070312 131.21875 C 131.25 131.769531 130.382812 132.230469 129.472656 132.609375 C 128.5625 132.984375 127.621094 133.269531 126.652344 133.464844 C 125.6875 133.65625 124.710938 133.753906 123.722656 133.75 C 122.734375 133.753906 121.757812 133.65625 120.792969 133.464844 C 119.824219 133.269531 118.882812 132.984375 117.972656 132.609375 C 117.0625 132.230469 116.195312 131.769531 115.375 131.21875 C 114.554688 130.671875 113.796875 130.050781 113.097656 129.351562 C 112.402344 128.652344 111.777344 127.894531 111.230469 127.074219 C 110.683594 126.253906 110.21875 125.386719 109.839844 124.476562 C 109.464844 123.566406 109.179688 122.625 108.988281 121.660156 C 108.792969 120.691406 108.699219 119.714844 108.699219 118.726562 C 108.699219 117.742188 108.792969 116.761719 108.988281 115.796875 C 109.179688 114.828125 109.464844 113.890625 109.839844 112.976562 C 110.21875 112.066406 110.683594 111.199219 111.230469 110.378906 C 111.777344 109.558594 112.402344 108.800781 113.097656 108.101562 C 113.796875 107.40625 114.554688 106.78125 115.375 106.234375 C 116.195312 105.6875 117.0625 105.222656 117.972656 104.847656 C 118.882812 104.46875 119.824219 104.183594 120.792969 103.992188 C 121.757812 103.796875 122.734375 103.703125 123.722656 103.703125 Z M 123.722656 103.703125 " fill-opacity="1" fill-rule="nonzero"/><path fill="#ffffff" d="M 159.140625 139.117188 C 160.128906 139.117188 161.105469 139.214844 162.074219 139.40625 C 163.042969 139.597656 163.980469 139.882812 164.890625 140.261719 C 165.804688 140.640625 166.667969 141.101562 167.488281 141.648438 C 168.308594 142.199219 169.070312 142.820312 169.765625 143.519531 C 170.464844 144.214844 171.085938 144.976562 171.636719 145.796875 C 172.183594 146.617188 172.644531 147.480469 173.023438 148.394531 C 173.402344 149.304688 173.6875 150.242188 173.878906 151.210938 C 174.070312 152.179688 174.167969 153.15625 174.167969 154.144531 C 174.167969 155.128906 174.070312 156.105469 173.878906 157.074219 C 173.6875 158.042969 173.402344 158.980469 173.023438 159.890625 C 172.644531 160.804688 172.183594 161.667969 171.636719 162.488281 C 171.085938 163.308594 170.464844 164.070312 169.765625 164.765625 C 169.070312 165.464844 168.308594 166.085938 167.488281 166.636719 C 166.667969 167.183594 165.804688 167.644531 164.890625 168.023438 C 163.980469 168.402344 163.042969 168.6875 162.074219 168.878906 C 161.105469 169.070312 160.128906 169.167969 159.140625 169.167969 C 158.15625 169.167969 157.179688 169.070312 156.210938 168.878906 C 155.242188 168.6875 154.304688 168.402344 153.394531 168.023438 C 152.480469 167.644531 151.617188 167.183594 150.796875 166.636719 C 149.976562 166.085938 149.214844 165.464844 148.519531 164.765625 C 147.820312 164.070312 147.199219 163.308594 146.648438 162.488281 C 146.101562 161.667969 145.640625 160.804688 145.261719 159.890625 C 144.882812 158.980469 144.597656 158.042969 144.40625 157.074219 C 144.214844 156.105469 144.117188 155.128906 144.117188 154.144531 C 144.117188 153.15625 144.214844 152.179688 144.40625 151.210938 C 144.597656 150.242188 144.882812 149.304688 145.261719 148.394531 C 145.640625 147.480469 146.101562 146.617188 146.648438 145.796875 C 147.199219 144.976562 147.820312 144.214844 148.519531 143.519531 C 149.214844 142.820312 149.976562 142.199219 150.796875 141.648438 C 151.617188 141.101562 152.480469 140.640625 153.394531 140.261719 C 154.304688 139.882812 155.242188 139.597656 156.210938 139.40625 C 157.179688 139.214844 158.15625 139.117188 159.140625 139.117188 Z M 159.140625 139.117188 " fill-opacity="1" fill-rule="nonzero"/><path fill="#ffffff" d="M 194.5625 174.539062 C 195.546875 174.539062 196.527344 174.632812 197.492188 174.824219 C 198.460938 175.019531 199.402344 175.304688 200.3125 175.679688 C 201.222656 176.058594 202.089844 176.523438 202.910156 177.070312 C 203.730469 177.617188 204.488281 178.242188 205.1875 178.9375 C 205.882812 179.636719 206.507812 180.394531 207.054688 181.214844 C 207.601562 182.035156 208.066406 182.902344 208.445312 183.8125 C 208.820312 184.722656 209.105469 185.664062 209.296875 186.632812 C 209.492188 187.597656 209.585938 188.574219 209.585938 189.5625 C 209.585938 190.550781 209.492188 191.527344 209.296875 192.492188 C 209.105469 193.460938 208.820312 194.402344 208.445312 195.3125 C 208.066406 196.222656 207.601562 197.089844 207.054688 197.910156 C 206.507812 198.730469 205.882812 199.488281 205.1875 200.1875 C 204.488281 200.882812 203.730469 201.507812 202.910156 202.054688 C 202.089844 202.601562 201.222656 203.066406 200.3125 203.445312 C 199.402344 203.820312 198.460938 204.105469 197.492188 204.296875 C 196.527344 204.492188 195.546875 204.585938 194.5625 204.585938 C 193.574219 204.585938 192.597656 204.492188 191.632812 204.296875 C 190.664062 204.105469 189.722656 203.820312 188.8125 203.445312 C 187.902344 203.066406 187.035156 202.601562 186.214844 202.054688 C 185.394531 201.507812 184.636719 200.882812 183.9375 200.1875 C 183.242188 199.488281 182.617188 198.730469 182.070312 197.910156 C 181.519531 197.089844 181.058594 196.222656 180.679688 195.3125 C 180.304688 194.402344 180.019531 193.460938 179.824219 192.492188 C 179.632812 191.527344 179.539062 190.550781 179.539062 189.5625 C 179.539062 188.574219 179.632812 187.597656 179.824219 186.632812 C 180.019531 185.664062 180.304688 184.722656 180.679688 183.8125 C 181.058594 182.902344 181.519531 182.035156 182.070312 181.214844 C 182.617188 180.394531 183.242188 179.636719 183.9375 178.9375 C 184.636719 178.242188 185.394531 177.617188 186.214844 177.070312 C 187.035156 176.523438 187.902344 176.058594 188.8125 175.679688 C 189.722656 175.304688 190.664062 175.019531 191.632812 174.824219 C 192.597656 174.632812 193.574219 174.539062 194.5625 174.539062 Z M 194.5625 174.539062 " fill-opacity="1" fill-rule="nonzero"/><path fill="#ffffff" d="M 219.351562 235.605469 C 225.222656 241.476562 234.734375 241.476562 240.605469 235.605469 C 246.472656 229.734375 246.472656 220.222656 240.605469 214.351562 C 234.734375 208.480469 225.222656 208.480469 219.351562 214.351562 C 213.480469 220.222656 213.480469 229.734375 219.351562 235.605469 Z M 219.351562 235.605469 " fill-opacity="1" fill-rule="nonzero"/><path fill="#ffffff" d="M 52.886719 103.703125 C 53.875 103.703125 54.851562 103.796875 55.820312 103.992188 C 56.785156 104.183594 57.726562 104.46875 58.636719 104.847656 C 59.546875 105.222656 60.414062 105.6875 61.234375 106.234375 C 62.054688 106.78125 62.8125 107.40625 63.511719 108.101562 C 64.210938 108.800781 64.832031 109.558594 65.378906 110.378906 C 65.929688 111.199219 66.390625 112.066406 66.769531 112.976562 C 67.144531 113.890625 67.429688 114.828125 67.625 115.796875 C 67.816406 116.761719 67.914062 117.742188 67.914062 118.726562 C 67.914062 119.714844 67.816406 120.691406 67.625 121.660156 C 67.429688 122.625 67.144531 123.566406 66.769531 124.476562 C 66.390625 125.386719 65.929688 126.253906 65.378906 127.074219 C 64.832031 127.894531 64.210938 128.652344 63.511719 129.351562 C 62.8125 130.050781 62.054688 130.671875 61.234375 131.21875 C 60.414062 131.769531 59.546875 132.230469 58.636719 132.609375 C 57.726562 132.984375 56.785156 133.269531 55.820312 133.464844 C 54.851562 133.65625 53.875 133.753906 52.886719 133.75 C 51.902344 133.753906 50.921875 133.65625 49.957031 133.464844 C 48.988281 133.269531 48.050781 132.984375 47.136719 132.609375 C 46.226562 132.230469 45.359375 131.769531 44.539062 131.21875 C 43.71875 130.671875 42.960938 130.050781 42.261719 129.351562 C 41.566406 128.652344 40.941406 127.894531 40.394531 127.074219 C 39.847656 126.253906 39.382812 125.386719 39.007812 124.476562 C 38.628906 123.566406 38.34375 122.625 38.152344 121.660156 C 37.957031 120.691406 37.863281 119.714844 37.863281 118.726562 C 37.863281 117.742188 37.957031 116.761719 38.152344 115.796875 C 38.34375 114.828125 38.628906 113.890625 39.007812 112.976562 C 39.382812 112.066406 39.847656 111.199219 40.394531 110.378906 C 40.941406 109.558594 41.566406 108.800781 42.261719 108.101562 C 42.960938 107.40625 43.71875 106.78125 44.539062 106.234375 C 45.359375 105.6875 46.226562 105.222656 47.136719 104.847656 C 48.050781 104.46875 48.988281 104.183594 49.957031 103.992188 C 50.921875 103.796875 51.902344 103.703125 52.886719 103.703125 Z M 52.886719 103.703125 " fill-opacity="1" fill-rule="nonzero"/><path fill="#ffffff" d="M 77.679688 164.769531 C 83.550781 170.640625 93.0625 170.640625 98.933594 164.769531 C 104.804688 158.898438 104.804688 149.386719 98.933594 143.515625 C 93.0625 137.644531 83.550781 137.644531 77.679688 143.515625 C 71.808594 149.386719 71.808594 158.898438 77.679688 164.769531 Z M 77.679688 164.769531 " fill-opacity="1" fill-rule="nonzero"/><path fill="#ffffff" d="M 17.46875 139.117188 C 18.453125 139.117188 19.429688 139.214844 20.398438 139.40625 C 21.367188 139.597656 22.304688 139.882812 23.21875 140.261719 C 24.128906 140.640625 24.996094 141.101562 25.816406 141.648438 C 26.636719 142.199219 27.394531 142.820312 28.09375 143.519531 C 28.789062 144.214844 29.414062 144.976562 29.960938 145.796875 C 30.507812 146.617188 30.972656 147.480469 31.347656 148.394531 C 31.726562 149.304688 32.011719 150.242188 32.203125 151.210938 C 32.394531 152.179688 32.492188 153.15625 32.492188 154.144531 C 32.492188 155.128906 32.394531 156.105469 32.203125 157.074219 C 32.011719 158.042969 31.726562 158.980469 31.347656 159.890625 C 30.972656 160.804688 30.507812 161.667969 29.960938 162.488281 C 29.414062 163.308594 28.789062 164.070312 28.09375 164.765625 C 27.394531 165.464844 26.636719 166.085938 25.816406 166.636719 C 24.996094 167.183594 24.128906 167.644531 23.21875 168.023438 C 22.304688 168.402344 21.367188 168.6875 20.398438 168.878906 C 19.429688 169.070312 18.453125 169.167969 17.46875 169.167969 C 16.480469 169.167969 15.503906 169.070312 14.535156 168.878906 C 13.570312 168.6875 12.628906 168.402344 11.71875 168.023438 C 10.804688 167.644531 9.941406 167.183594 9.121094 166.636719 C 8.300781 166.085938 7.539062 165.464844 6.84375 164.765625 C 6.144531 164.070312 5.523438 163.308594 4.976562 162.488281 C 4.425781 161.667969 3.964844 160.804688 3.585938 159.890625 C 3.207031 158.980469 2.925781 158.042969 2.730469 157.074219 C 2.539062 156.105469 2.441406 155.128906 2.441406 154.144531 C 2.441406 153.15625 2.539062 152.179688 2.730469 151.210938 C 2.925781 150.242188 3.207031 149.304688 3.585938 148.394531 C 3.964844 147.480469 4.425781 146.617188 4.976562 145.796875 C 5.523438 144.976562 6.144531 144.214844 6.84375 143.519531 C 7.539062 142.820312 8.300781 142.199219 9.121094 141.648438 C 9.941406 141.101562 10.804688 140.640625 11.71875 140.261719 C 12.628906 139.882812 13.570312 139.597656 14.535156 139.40625 C 15.503906 139.214844 16.480469 139.117188 17.46875 139.117188 Z M 17.46875 139.117188 " fill-opacity="1" fill-rule="nonzero"/><path fill="#ffffff" d="M 52.886719 174.539062 C 53.875 174.539062 54.851562 174.632812 55.820312 174.824219 C 56.785156 175.019531 57.726562 175.304688 58.636719 175.679688 C 59.546875 176.058594 60.414062 176.523438 61.234375 177.070312 C 62.054688 177.617188 62.8125 178.242188 63.511719 178.9375 C 64.210938 179.636719 64.832031 180.394531 65.378906 181.214844 C 65.929688 182.035156 66.390625 182.902344 66.769531 183.8125 C 67.144531 184.722656 67.429688 185.664062 67.625 186.632812 C 67.816406 187.597656 67.914062 188.574219 67.914062 189.5625 C 67.914062 190.550781 67.816406 191.527344 67.625 192.492188 C 67.429688 193.460938 67.144531 194.402344 66.769531 195.3125 C 66.390625 196.222656 65.929688 197.089844 65.378906 197.910156 C 64.832031 198.730469 64.210938 199.488281 63.511719 200.1875 C 62.8125 200.882812 62.054688 201.507812 61.234375 202.054688 C 60.414062 202.601562 59.546875 203.066406 58.636719 203.445312 C 57.726562 203.820312 56.785156 204.105469 55.820312 204.296875 C 54.851562 204.492188 53.875 204.585938 52.886719 204.585938 C 51.902344 204.585938 50.921875 204.492188 49.957031 204.296875 C 48.988281 204.105469 48.050781 203.820312 47.136719 203.445312 C 46.226562 203.066406 45.359375 202.601562 44.539062 202.054688 C 43.71875 201.507812 42.960938 200.882812 42.261719 200.1875 C 41.566406 199.488281 40.941406 198.730469 40.394531 197.910156 C 39.847656 197.089844 39.382812 196.222656 39.007812 195.3125 C 38.628906 194.402344 38.34375 193.460938 38.152344 192.492188 C 37.957031 191.527344 37.863281 190.550781 37.863281 189.5625 C 37.863281 188.574219 37.957031 187.597656 38.152344 186.632812 C 38.34375 185.664062 38.628906 184.722656 39.007812 183.8125 C 39.382812 182.902344 39.847656 182.035156 40.394531 181.214844 C 40.941406 180.394531 41.566406 179.636719 42.261719 178.9375 C 42.960938 178.242188 43.71875 177.617188 44.539062 177.070312 C 45.359375 176.523438 46.226562 176.058594 47.136719 175.679688 C 48.050781 175.304688 48.988281 175.019531 49.957031 174.824219 C 50.921875 174.632812 51.902344 174.539062 52.886719 174.539062 Z M 52.886719 174.539062 " fill-opacity="1" fill-rule="nonzero"/><path fill="#ffffff" d="M 6.84375 235.605469 C 12.714844 241.476562 22.226562 241.476562 28.097656 235.605469 C 33.96875 229.734375 33.96875 220.222656 28.097656 214.351562 C 22.226562 208.480469 12.714844 208.480469 6.84375 214.351562 C 0.976562 220.222656 0.976562 229.738281 6.84375 235.605469 Z M 6.84375 235.605469 " fill-opacity="1" fill-rule="nonzero"/><g fill="#ffffff" fill-opacity="1"><g transform="translate(315.985888, 193.407246)"><g><path d="M 99.578125 0 L 73.8125 0 L 45.765625 -45.109375 L 36.171875 -38.21875 L 36.171875 0 L 13.46875 0 L 13.46875 -107.046875 L 36.171875 -107.046875 L 36.171875 -58.0625 C 37.679688 -60.164062 39.164062 -62.265625 40.625 -64.359375 C 42.09375 -66.460938 43.585938 -68.5625 45.109375 -70.65625 L 74.09375 -107.046875 L 99.28125 -107.046875 L 61.9375 -59.671875 Z M 99.578125 0 "/></g></g></g><g fill="#ffffff" fill-opacity="1"><g transform="translate(415.561165, 193.407246)"><g><path d="M 45.25 -83.546875 C 56.226562 -83.546875 64.644531 -81.148438 70.5 -76.359375 C 76.363281 -71.578125 79.296875 -64.304688 79.296875 -54.546875 L 79.296875 0 L 63.703125 0 L 59.375 -11.125 L 58.796875 -11.125 C 56.453125 -8.195312 54.054688 -5.804688 51.609375 -3.953125 C 49.171875 -2.097656 46.363281 -0.734375 43.1875 0.140625 C 40.019531 1.023438 36.164062 1.46875 31.625 1.46875 C 26.789062 1.46875 22.457031 0.539062 18.625 -1.3125 C 14.800781 -3.164062 11.789062 -6.007812 9.59375 -9.84375 C 7.394531 -13.675781 6.296875 -18.546875 6.296875 -24.453125 C 6.296875 -33.140625 9.347656 -39.546875 15.453125 -43.671875 C 21.554688 -47.796875 30.707031 -50.078125 42.90625 -50.515625 L 57.109375 -50.953125 L 57.109375 -54.546875 C 57.109375 -58.835938 55.984375 -61.984375 53.734375 -63.984375 C 51.492188 -65.992188 48.375 -67 44.375 -67 C 40.414062 -67 36.53125 -66.4375 32.71875 -65.3125 C 28.914062 -64.1875 25.113281 -62.769531 21.3125 -61.0625 L 13.90625 -76.140625 C 18.25 -78.441406 23.117188 -80.25 28.515625 -81.5625 C 33.910156 -82.882812 39.488281 -83.546875 45.25 -83.546875 Z M 57.109375 -37.921875 L 48.46875 -37.640625 C 41.25 -37.441406 36.234375 -36.144531 33.421875 -33.75 C 30.617188 -31.363281 29.21875 -28.21875 29.21875 -24.3125 C 29.21875 -20.894531 30.21875 -18.460938 32.21875 -17.015625 C 34.21875 -15.578125 36.828125 -14.859375 40.046875 -14.859375 C 44.828125 -14.859375 48.863281 -16.273438 52.15625 -19.109375 C 55.457031 -21.941406 57.109375 -25.96875 57.109375 -31.1875 Z M 57.109375 -37.921875 "/></g></g></g><g fill="#ffffff" fill-opacity="1"><g transform="translate(506.130758, 193.407246)"><g><path d="M 57.25 -83.390625 C 66.476562 -83.390625 73.9375 -79.800781 79.625 -72.625 C 85.3125 -65.457031 88.15625 -54.941406 88.15625 -41.078125 C 88.15625 -31.804688 86.8125 -24.007812 84.125 -17.6875 C 81.445312 -11.363281 77.738281 -6.585938 73 -3.359375 C 68.257812 -0.140625 62.816406 1.46875 56.671875 1.46875 C 52.710938 1.46875 49.316406 0.96875 46.484375 -0.03125 C 43.660156 -1.03125 41.25 -2.320312 39.25 -3.90625 C 37.25 -5.5 35.515625 -7.195312 34.046875 -9 L 32.875 -9 C 33.269531 -7.050781 33.5625 -5.050781 33.75 -3 C 33.945312 -0.945312 34.046875 1.050781 34.046875 3 L 34.046875 36.03125 L 11.71875 36.03125 L 11.71875 -81.859375 L 29.875 -81.859375 L 33.015625 -71.25 L 34.046875 -71.25 C 35.515625 -73.4375 37.296875 -75.457031 39.390625 -77.3125 C 41.492188 -79.175781 44.019531 -80.65625 46.96875 -81.75 C 49.925781 -82.84375 53.351562 -83.390625 57.25 -83.390625 Z M 50.078125 -65.53125 C 46.171875 -65.53125 43.070312 -64.722656 40.78125 -63.109375 C 38.488281 -61.503906 36.816406 -59.085938 35.765625 -55.859375 C 34.710938 -52.640625 34.140625 -48.566406 34.046875 -43.640625 L 34.046875 -41.21875 C 34.046875 -35.945312 34.546875 -31.476562 35.546875 -27.8125 C 36.546875 -24.15625 38.226562 -21.375 40.59375 -19.46875 C 42.96875 -17.570312 46.226562 -16.625 50.375 -16.625 C 53.789062 -16.625 56.597656 -17.570312 58.796875 -19.46875 C 60.992188 -21.375 62.640625 -24.171875 63.734375 -27.859375 C 64.835938 -31.546875 65.390625 -36.050781 65.390625 -41.375 C 65.390625 -49.375 64.144531 -55.398438 61.65625 -59.453125 C 59.164062 -63.503906 55.304688 -65.53125 50.078125 -65.53125 Z M 50.078125 -65.53125 "/></g></g></g><g fill="#ffffff" fill-opacity="1"><g transform="translate(601.020139, 193.407246)"><g><path d="M 34.046875 -81.859375 L 34.046875 0 L 11.71875 0 L 11.71875 -81.859375 Z M 22.921875 -113.921875 C 26.234375 -113.921875 29.085938 -113.148438 31.484375 -111.609375 C 33.878906 -110.078125 35.078125 -107.210938 35.078125 -103.015625 C 35.078125 -98.867188 33.878906 -96 31.484375 -94.40625 C 29.085938 -92.820312 26.234375 -92.03125 22.921875 -92.03125 C 19.546875 -92.03125 16.675781 -92.820312 14.3125 -94.40625 C 11.945312 -96 10.765625 -98.867188 10.765625 -103.015625 C 10.765625 -107.210938 11.945312 -110.078125 14.3125 -111.609375 C 16.675781 -113.148438 19.546875 -113.921875 22.921875 -113.921875 Z M 22.921875 -113.921875 "/></g></g></g><g fill="#ffffff" fill-opacity="1"><g transform="translate(646.780858, 193.407246)"><g><path d="M 46.203125 -16.328125 C 48.640625 -16.328125 51.015625 -16.570312 53.328125 -17.0625 C 55.648438 -17.550781 57.960938 -18.160156 60.265625 -18.890625 L 60.265625 -2.265625 C 57.867188 -1.191406 54.898438 -0.300781 51.359375 0.40625 C 47.828125 1.113281 43.960938 1.46875 39.765625 1.46875 C 34.878906 1.46875 30.492188 0.675781 26.609375 -0.90625 C 22.734375 -2.5 19.679688 -5.257812 17.453125 -9.1875 C 15.234375 -13.113281 14.125 -18.59375 14.125 -25.625 L 14.125 -65.09375 L 3.4375 -65.09375 L 3.4375 -74.53125 L 15.734375 -82 L 22.1875 -99.28125 L 36.46875 -99.28125 L 36.46875 -81.859375 L 59.375 -81.859375 L 59.375 -65.09375 L 36.46875 -65.09375 L 36.46875 -25.625 C 36.46875 -22.5 37.359375 -20.164062 39.140625 -18.625 C 40.921875 -17.09375 43.273438 -16.328125 46.203125 -16.328125 Z M 46.203125 -16.328125 "/></g></g></g><g fill="#ffffff" fill-opacity="1"><g transform="translate(711.870894, 193.407246)"><g><path d="M 45.25 -83.546875 C 56.226562 -83.546875 64.644531 -81.148438 70.5 -76.359375 C 76.363281 -71.578125 79.296875 -64.304688 79.296875 -54.546875 L 79.296875 0 L 63.703125 0 L 59.375 -11.125 L 58.796875 -11.125 C 56.453125 -8.195312 54.054688 -5.804688 51.609375 -3.953125 C 49.171875 -2.097656 46.363281 -0.734375 43.1875 0.140625 C 40.019531 1.023438 36.164062 1.46875 31.625 1.46875 C 26.789062 1.46875 22.457031 0.539062 18.625 -1.3125 C 14.800781 -3.164062 11.789062 -6.007812 9.59375 -9.84375 C 7.394531 -13.675781 6.296875 -18.546875 6.296875 -24.453125 C 6.296875 -33.140625 9.347656 -39.546875 15.453125 -43.671875 C 21.554688 -47.796875 30.707031 -50.078125 42.90625 -50.515625 L 57.109375 -50.953125 L 57.109375 -54.546875 C 57.109375 -58.835938 55.984375 -61.984375 53.734375 -63.984375 C 51.492188 -65.992188 48.375 -67 44.375 -67 C 40.414062 -67 36.53125 -66.4375 32.71875 -65.3125 C 28.914062 -64.1875 25.113281 -62.769531 21.3125 -61.0625 L 13.90625 -76.140625 C 18.25 -78.441406 23.117188 -80.25 28.515625 -81.5625 C 33.910156 -82.882812 39.488281 -83.546875 45.25 -83.546875 Z M 57.109375 -37.921875 L 48.46875 -37.640625 C 41.25 -37.441406 36.234375 -36.144531 33.421875 -33.75 C 30.617188 -31.363281 29.21875 -28.21875 29.21875 -24.3125 C 29.21875 -20.894531 30.21875 -18.460938 32.21875 -17.015625 C 34.21875 -15.578125 36.828125 -14.859375 40.046875 -14.859375 C 44.828125 -14.859375 48.863281 -16.273438 52.15625 -19.109375 C 55.457031 -21.941406 57.109375 -25.96875 57.109375 -31.1875 Z M 57.109375 -37.921875 "/></g></g></g><g fill="#ffffff" fill-opacity="1"><g transform="translate(802.440486, 193.407246)"><g><path d="M 34.046875 0 L 11.71875 0 L 11.71875 -113.921875 L 34.046875 -113.921875 Z M 34.046875 0 "/></g></g></g></svg>