<svg xmlns="http://www.w3.org/2000/svg" xmlns:xlink="http://www.w3.org/1999/xlink" width="1400" zoomAndPan="magnify" viewBox="0 0 1050 599.999999" height="800" preserveAspectRatio="xMidYMid meet" version="1.0"><defs><g/><clipPath id="544cd216e3"><path d="M 208 195.367188 L 239 195.367188 L 239 226 L 208 226 Z M 208 195.367188 " clip-rule="nonzero"/></clipPath></defs><g clip-path="url(#544cd216e3)"><path fill="#ffffff" d="M 223.289062 195.410156 C 224.28125 195.410156 225.257812 195.507812 226.230469 195.699219 C 227.199219 195.894531 228.140625 196.179688 229.054688 196.558594 C 229.96875 196.9375 230.839844 197.402344 231.660156 197.949219 C 232.484375 198.5 233.246094 199.125 233.945312 199.824219 C 234.644531 200.523438 235.269531 201.285156 235.816406 202.105469 C 236.367188 202.929688 236.832031 203.796875 237.210938 204.710938 C 237.589844 205.625 237.875 206.566406 238.066406 207.539062 C 238.261719 208.507812 238.355469 209.488281 238.355469 210.476562 C 238.355469 211.464844 238.261719 212.445312 238.066406 213.417969 C 237.875 214.386719 237.589844 215.328125 237.210938 216.242188 C 236.832031 217.15625 236.367188 218.023438 235.816406 218.847656 C 235.269531 219.671875 234.644531 220.429688 233.945312 221.128906 C 233.246094 221.832031 232.484375 222.453125 231.660156 223.003906 C 230.839844 223.554688 229.96875 224.019531 229.054688 224.398438 C 228.140625 224.773438 227.199219 225.0625 226.230469 225.253906 C 225.257812 225.445312 224.28125 225.542969 223.289062 225.542969 C 222.300781 225.542969 221.320312 225.445312 220.351562 225.253906 C 219.382812 225.0625 218.4375 224.773438 217.523438 224.398438 C 216.609375 224.019531 215.742188 223.554688 214.921875 223.003906 C 214.097656 222.453125 213.335938 221.832031 212.636719 221.128906 C 211.9375 220.429688 211.3125 219.671875 210.765625 218.847656 C 210.214844 218.023438 209.75 217.15625 209.371094 216.242188 C 208.992188 215.328125 208.707031 214.386719 208.515625 213.417969 C 208.320312 212.445312 208.226562 211.464844 208.226562 210.476562 C 208.226562 209.488281 208.320312 208.507812 208.515625 207.539062 C 208.707031 206.566406 208.992188 205.625 209.371094 204.710938 C 209.75 203.796875 210.214844 202.929688 210.765625 202.105469 C 211.3125 201.285156 211.9375 200.523438 212.636719 199.824219 C 213.335938 199.125 214.097656 198.5 214.921875 197.949219 C 215.742188 197.402344 216.609375 196.9375 217.523438 196.558594 C 218.4375 196.179688 219.382812 195.894531 220.351562 195.699219 C 221.320312 195.507812 222.300781 195.410156 223.289062 195.410156 Z M 223.289062 195.410156 " fill-opacity="1" fill-rule="nonzero"/></g><path fill="#ffffff" d="M 248.152344 256.644531 C 254.039062 262.53125 263.574219 262.53125 269.460938 256.644531 C 275.347656 250.757812 275.347656 241.21875 269.460938 235.335938 C 263.574219 229.449219 254.039062 229.449219 248.152344 235.335938 C 242.265625 241.21875 242.265625 250.757812 248.152344 256.644531 Z M 248.152344 256.644531 " fill-opacity="1" fill-rule="nonzero"/><path fill="#ffffff" d="M 294.324219 266.441406 C 295.3125 266.441406 296.292969 266.535156 297.261719 266.730469 C 298.234375 266.921875 299.175781 267.207031 300.089844 267.585938 C 301.003906 267.964844 301.871094 268.429688 302.691406 268.980469 C 303.515625 269.527344 304.277344 270.152344 304.976562 270.851562 C 305.675781 271.550781 306.300781 272.3125 306.851562 273.136719 C 307.398438 273.957031 307.863281 274.828125 308.242188 275.742188 C 308.621094 276.65625 308.90625 277.597656 309.097656 278.566406 C 309.292969 279.535156 309.390625 280.515625 309.390625 281.503906 C 309.390625 282.496094 309.292969 283.476562 309.097656 284.445312 C 308.90625 285.414062 308.621094 286.355469 308.242188 287.269531 C 307.863281 288.183594 307.398438 289.054688 306.851562 289.875 C 306.300781 290.699219 305.675781 291.460938 304.976562 292.160156 C 304.277344 292.859375 303.515625 293.484375 302.691406 294.03125 C 301.871094 294.582031 301.003906 295.046875 300.089844 295.425781 C 299.175781 295.804688 298.234375 296.089844 297.261719 296.28125 C 296.292969 296.476562 295.3125 296.570312 294.324219 296.570312 C 293.332031 296.570312 292.355469 296.476562 291.382812 296.28125 C 290.414062 296.089844 289.472656 295.804688 288.558594 295.425781 C 287.644531 295.046875 286.777344 294.582031 285.953125 294.03125 C 285.128906 293.484375 284.371094 292.859375 283.667969 292.160156 C 282.96875 291.460938 282.347656 290.699219 281.796875 289.875 C 281.246094 289.054688 280.78125 288.183594 280.402344 287.269531 C 280.027344 286.355469 279.738281 285.414062 279.546875 284.445312 C 279.355469 283.476562 279.257812 282.496094 279.257812 281.503906 C 279.257812 280.515625 279.355469 279.535156 279.546875 278.566406 C 279.738281 277.597656 280.027344 276.65625 280.402344 275.742188 C 280.78125 274.828125 281.246094 273.957031 281.796875 273.136719 C 282.347656 272.3125 282.96875 271.550781 283.667969 270.851562 C 284.371094 270.152344 285.128906 269.527344 285.953125 268.980469 C 286.777344 268.429688 287.644531 267.964844 288.558594 267.585938 C 289.472656 267.207031 290.414062 266.921875 291.382812 266.730469 C 292.355469 266.535156 293.332031 266.441406 294.324219 266.441406 Z M 294.324219 266.441406 " fill-opacity="1" fill-rule="nonzero"/><path fill="#ffffff" d="M 319.179688 327.671875 C 325.066406 333.558594 334.605469 333.558594 340.492188 327.671875 C 346.375 321.785156 346.375 312.25 340.492188 306.363281 C 334.605469 300.476562 325.066406 300.476562 319.179688 306.363281 C 313.292969 312.25 313.292969 321.785156 319.179688 327.671875 Z M 319.179688 327.671875 " fill-opacity="1" fill-rule="nonzero"/><path fill="#ffffff" d="M 177.125 256.644531 C 183.007812 262.53125 192.546875 262.53125 198.433594 256.644531 C 204.320312 250.757812 204.320312 241.21875 198.433594 235.335938 C 192.546875 229.449219 183.007812 229.449219 177.125 235.335938 C 171.238281 241.21875 171.238281 250.757812 177.125 256.644531 Z M 177.125 256.644531 " fill-opacity="1" fill-rule="nonzero"/><path fill="#ffffff" d="M 223.289062 266.441406 C 224.28125 266.441406 225.257812 266.535156 226.230469 266.730469 C 227.199219 266.921875 228.140625 267.207031 229.054688 267.585938 C 229.96875 267.964844 230.839844 268.429688 231.660156 268.980469 C 232.484375 269.527344 233.246094 270.152344 233.945312 270.851562 C 234.644531 271.550781 235.269531 272.3125 235.816406 273.136719 C 236.367188 273.957031 236.832031 274.828125 237.210938 275.742188 C 237.589844 276.65625 237.875 277.597656 238.066406 278.566406 C 238.261719 279.535156 238.355469 280.515625 238.355469 281.503906 C 238.355469 282.496094 238.261719 283.476562 238.066406 284.445312 C 237.875 285.414062 237.589844 286.355469 237.210938 287.269531 C 236.832031 288.183594 236.367188 289.054688 235.816406 289.875 C 235.269531 290.699219 234.644531 291.460938 233.945312 292.160156 C 233.246094 292.859375 232.484375 293.484375 231.660156 294.03125 C 230.839844 294.582031 229.96875 295.046875 229.054688 295.425781 C 228.140625 295.804688 227.199219 296.089844 226.230469 296.28125 C 225.257812 296.476562 224.28125 296.570312 223.289062 296.570312 C 222.300781 296.570312 221.320312 296.476562 220.351562 296.28125 C 219.382812 296.089844 218.4375 295.804688 217.523438 295.425781 C 216.609375 295.046875 215.742188 294.582031 214.921875 294.03125 C 214.097656 293.484375 213.335938 292.859375 212.636719 292.160156 C 211.9375 291.460938 211.3125 290.699219 210.765625 289.875 C 210.214844 289.054688 209.75 288.183594 209.371094 287.269531 C 208.992188 286.355469 208.707031 285.414062 208.515625 284.445312 C 208.320312 283.476562 208.226562 282.496094 208.226562 281.503906 C 208.226562 280.515625 208.320312 279.535156 208.515625 278.566406 C 208.707031 277.597656 208.992188 276.65625 209.371094 275.742188 C 209.75 274.828125 210.214844 273.957031 210.765625 273.136719 C 211.3125 272.3125 211.9375 271.550781 212.636719 270.851562 C 213.335938 270.152344 214.097656 269.527344 214.921875 268.980469 C 215.742188 268.429688 216.609375 267.964844 217.523438 267.585938 C 218.4375 267.207031 219.382812 266.921875 220.351562 266.730469 C 221.320312 266.535156 222.300781 266.441406 223.289062 266.441406 Z M 223.289062 266.441406 " fill-opacity="1" fill-rule="nonzero"/><path fill="#ffffff" d="M 258.808594 301.953125 C 259.796875 301.953125 260.777344 302.046875 261.746094 302.242188 C 262.714844 302.433594 263.660156 302.71875 264.570312 303.097656 C 265.484375 303.476562 266.355469 303.941406 267.175781 304.492188 C 268 305.039062 268.761719 305.664062 269.460938 306.363281 C 270.160156 307.0625 270.785156 307.824219 271.332031 308.648438 C 271.882812 309.46875 272.347656 310.339844 272.726562 311.253906 C 273.105469 312.167969 273.390625 313.109375 273.582031 314.078125 C 273.777344 315.050781 273.871094 316.027344 273.871094 317.019531 C 273.871094 318.007812 273.777344 318.988281 273.582031 319.957031 C 273.390625 320.925781 273.105469 321.871094 272.726562 322.785156 C 272.347656 323.699219 271.882812 324.566406 271.332031 325.386719 C 270.785156 326.210938 270.160156 326.972656 269.460938 327.671875 C 268.761719 328.371094 268 328.996094 267.175781 329.542969 C 266.355469 330.09375 265.484375 330.558594 264.570312 330.9375 C 263.660156 331.316406 262.714844 331.601562 261.746094 331.792969 C 260.777344 331.988281 259.796875 332.082031 258.808594 332.082031 C 257.816406 332.082031 256.835938 331.988281 255.867188 331.792969 C 254.898438 331.601562 253.957031 331.316406 253.042969 330.9375 C 252.128906 330.558594 251.257812 330.09375 250.4375 329.542969 C 249.613281 328.996094 248.851562 328.371094 248.152344 327.671875 C 247.453125 326.972656 246.828125 326.210938 246.28125 325.386719 C 245.730469 324.566406 245.265625 323.699219 244.886719 322.785156 C 244.507812 321.871094 244.222656 320.925781 244.03125 319.957031 C 243.835938 318.988281 243.742188 318.007812 243.742188 317.019531 C 243.742188 316.027344 243.835938 315.050781 244.03125 314.078125 C 244.222656 313.109375 244.507812 312.167969 244.886719 311.253906 C 245.265625 310.339844 245.730469 309.46875 246.28125 308.648438 C 246.828125 307.824219 247.453125 307.0625 248.152344 306.363281 C 248.851562 305.664062 249.613281 305.039062 250.4375 304.492188 C 251.257812 303.941406 252.128906 303.476562 253.042969 303.097656 C 253.957031 302.71875 254.898438 302.433594 255.867188 302.242188 C 256.835938 302.046875 257.816406 301.953125 258.808594 301.953125 Z M 258.808594 301.953125 " fill-opacity="1" fill-rule="nonzero"/><path fill="#ffffff" d="M 294.324219 337.46875 C 295.3125 337.46875 296.292969 337.566406 297.261719 337.757812 C 298.234375 337.949219 299.175781 338.238281 300.089844 338.613281 C 301.003906 338.992188 301.871094 339.457031 302.691406 340.007812 C 303.515625 340.558594 304.277344 341.179688 304.976562 341.882812 C 305.675781 342.582031 306.300781 343.339844 306.851562 344.164062 C 307.398438 344.988281 307.863281 345.855469 308.242188 346.769531 C 308.621094 347.683594 308.90625 348.625 309.097656 349.59375 C 309.292969 350.566406 309.390625 351.542969 309.390625 352.535156 C 309.390625 353.523438 309.292969 354.503906 309.097656 355.472656 C 308.90625 356.445312 308.621094 357.386719 308.242188 358.300781 C 307.863281 359.214844 307.398438 360.082031 306.851562 360.902344 C 306.300781 361.726562 305.675781 362.488281 304.976562 363.1875 C 304.277344 363.886719 303.515625 364.511719 302.691406 365.0625 C 301.871094 365.609375 301.003906 366.074219 300.089844 366.453125 C 299.175781 366.832031 298.234375 367.117188 297.261719 367.308594 C 296.292969 367.503906 295.3125 367.601562 294.324219 367.601562 C 293.332031 367.601562 292.355469 367.503906 291.382812 367.308594 C 290.414062 367.117188 289.472656 366.832031 288.558594 366.453125 C 287.644531 366.074219 286.777344 365.609375 285.953125 365.0625 C 285.128906 364.511719 284.371094 363.886719 283.667969 363.1875 C 282.96875 362.488281 282.347656 361.726562 281.796875 360.902344 C 281.246094 360.082031 280.78125 359.214844 280.402344 358.300781 C 280.027344 357.386719 279.738281 356.445312 279.546875 355.472656 C 279.355469 354.503906 279.257812 353.523438 279.257812 352.535156 C 279.257812 351.542969 279.355469 350.566406 279.546875 349.59375 C 279.738281 348.625 280.027344 347.683594 280.402344 346.769531 C 280.78125 345.855469 281.246094 344.988281 281.796875 344.164062 C 282.347656 343.339844 282.96875 342.582031 283.667969 341.882812 C 284.371094 341.179688 285.128906 340.558594 285.953125 340.007812 C 286.777344 339.457031 287.644531 338.992188 288.558594 338.613281 C 289.472656 338.238281 290.414062 337.949219 291.382812 337.757812 C 292.355469 337.566406 293.332031 337.46875 294.324219 337.46875 Z M 294.324219 337.46875 " fill-opacity="1" fill-rule="nonzero"/><path fill="#ffffff" d="M 319.179688 398.703125 C 325.066406 404.585938 334.605469 404.585938 340.492188 398.703125 C 346.375 392.816406 346.375 383.277344 340.492188 377.390625 C 334.605469 371.503906 325.066406 371.503906 319.179688 377.390625 C 313.292969 383.277344 313.292969 392.816406 319.179688 398.703125 Z M 319.179688 398.703125 " fill-opacity="1" fill-rule="nonzero"/><path fill="#ffffff" d="M 152.261719 266.441406 C 153.25 266.441406 154.230469 266.535156 155.203125 266.730469 C 156.171875 266.921875 157.113281 267.207031 158.027344 267.585938 C 158.941406 267.964844 159.808594 268.429688 160.632812 268.980469 C 161.453125 269.527344 162.214844 270.152344 162.914062 270.851562 C 163.613281 271.550781 164.238281 272.3125 164.789062 273.136719 C 165.339844 273.957031 165.800781 274.828125 166.179688 275.742188 C 166.558594 276.65625 166.84375 277.597656 167.039062 278.566406 C 167.230469 279.535156 167.328125 280.515625 167.328125 281.503906 C 167.328125 282.496094 167.230469 283.476562 167.039062 284.445312 C 166.84375 285.414062 166.558594 286.355469 166.179688 287.269531 C 165.800781 288.183594 165.339844 289.054688 164.789062 289.875 C 164.238281 290.699219 163.613281 291.460938 162.914062 292.160156 C 162.214844 292.859375 161.453125 293.484375 160.632812 294.03125 C 159.808594 294.582031 158.941406 295.046875 158.027344 295.425781 C 157.113281 295.804688 156.171875 296.089844 155.203125 296.28125 C 154.230469 296.476562 153.25 296.570312 152.261719 296.570312 C 151.273438 296.570312 150.292969 296.476562 149.324219 296.28125 C 148.351562 296.089844 147.410156 295.804688 146.496094 295.425781 C 145.582031 295.046875 144.714844 294.582031 143.890625 294.03125 C 143.070312 293.484375 142.308594 292.859375 141.609375 292.160156 C 140.910156 291.460938 140.285156 290.699219 139.734375 289.875 C 139.1875 289.054688 138.722656 288.183594 138.34375 287.269531 C 137.964844 286.355469 137.679688 285.414062 137.484375 284.445312 C 137.292969 283.476562 137.195312 282.496094 137.195312 281.503906 C 137.195312 280.515625 137.292969 279.535156 137.484375 278.566406 C 137.679688 277.597656 137.964844 276.65625 138.34375 275.742188 C 138.722656 274.828125 139.1875 273.957031 139.734375 273.136719 C 140.285156 272.3125 140.910156 271.550781 141.609375 270.851562 C 142.308594 270.152344 143.070312 269.527344 143.890625 268.980469 C 144.714844 268.429688 145.582031 267.964844 146.496094 267.585938 C 147.410156 267.207031 148.351562 266.921875 149.324219 266.730469 C 150.292969 266.535156 151.273438 266.441406 152.261719 266.441406 Z M 152.261719 266.441406 " fill-opacity="1" fill-rule="nonzero"/><path fill="#ffffff" d="M 177.125 327.671875 C 183.007812 333.558594 192.546875 333.558594 198.433594 327.671875 C 204.320312 321.785156 204.320312 312.25 198.433594 306.363281 C 192.546875 300.476562 183.007812 300.476562 177.125 306.363281 C 171.238281 312.25 171.238281 321.785156 177.125 327.671875 Z M 177.125 327.671875 " fill-opacity="1" fill-rule="nonzero"/><path fill="#ffffff" d="M 116.746094 301.953125 C 117.734375 301.953125 118.714844 302.046875 119.683594 302.242188 C 120.65625 302.433594 121.597656 302.71875 122.511719 303.097656 C 123.425781 303.476562 124.292969 303.941406 125.117188 304.492188 C 125.9375 305.039062 126.699219 305.664062 127.398438 306.363281 C 128.097656 307.0625 128.722656 307.824219 129.273438 308.648438 C 129.824219 309.46875 130.285156 310.339844 130.664062 311.253906 C 131.042969 312.167969 131.328125 313.109375 131.523438 314.078125 C 131.714844 315.050781 131.8125 316.027344 131.8125 317.019531 C 131.8125 318.007812 131.714844 318.988281 131.523438 319.957031 C 131.328125 320.925781 131.042969 321.871094 130.664062 322.785156 C 130.285156 323.699219 129.824219 324.566406 129.273438 325.386719 C 128.722656 326.210938 128.097656 326.972656 127.398438 327.671875 C 126.699219 328.371094 125.9375 328.996094 125.117188 329.542969 C 124.292969 330.09375 123.425781 330.558594 122.511719 330.9375 C 121.597656 331.316406 120.65625 331.601562 119.683594 331.792969 C 118.714844 331.988281 117.734375 332.082031 116.746094 332.082031 C 115.757812 332.082031 114.777344 331.988281 113.808594 331.792969 C 112.835938 331.601562 111.894531 331.316406 110.980469 330.9375 C 110.066406 330.558594 109.199219 330.09375 108.375 329.542969 C 107.554688 328.996094 106.792969 328.371094 106.09375 327.671875 C 105.394531 326.972656 104.769531 326.210938 104.21875 325.386719 C 103.667969 324.566406 103.207031 323.699219 102.828125 322.785156 C 102.449219 321.871094 102.164062 320.925781 101.96875 319.957031 C 101.777344 318.988281 101.679688 318.007812 101.679688 317.019531 C 101.679688 316.027344 101.777344 315.050781 101.96875 314.078125 C 102.164062 313.109375 102.449219 312.167969 102.828125 311.253906 C 103.207031 310.339844 103.667969 309.46875 104.21875 308.648438 C 104.769531 307.824219 105.394531 307.0625 106.09375 306.363281 C 106.792969 305.664062 107.554688 305.039062 108.375 304.492188 C 109.199219 303.941406 110.066406 303.476562 110.980469 303.097656 C 111.894531 302.71875 112.835938 302.433594 113.808594 302.242188 C 114.777344 302.046875 115.757812 301.953125 116.746094 301.953125 Z M 116.746094 301.953125 " fill-opacity="1" fill-rule="nonzero"/><path fill="#ffffff" d="M 152.261719 337.46875 C 153.25 337.46875 154.230469 337.566406 155.203125 337.757812 C 156.171875 337.949219 157.113281 338.238281 158.027344 338.613281 C 158.941406 338.992188 159.808594 339.457031 160.632812 340.007812 C 161.453125 340.558594 162.214844 341.179688 162.914062 341.882812 C 163.613281 342.582031 164.238281 343.339844 164.789062 344.164062 C 165.339844 344.988281 165.800781 345.855469 166.179688 346.769531 C 166.558594 347.683594 166.84375 348.625 167.039062 349.59375 C 167.230469 350.566406 167.328125 351.542969 167.328125 352.535156 C 167.328125 353.523438 167.230469 354.503906 167.039062 355.472656 C 166.84375 356.445312 166.558594 357.386719 166.179688 358.300781 C 165.800781 359.214844 165.339844 360.082031 164.789062 360.902344 C 164.238281 361.726562 163.613281 362.488281 162.914062 363.1875 C 162.214844 363.886719 161.453125 364.511719 160.632812 365.0625 C 159.808594 365.609375 158.941406 366.074219 158.027344 366.453125 C 157.113281 366.832031 156.171875 367.117188 155.203125 367.308594 C 154.230469 367.503906 153.25 367.601562 152.261719 367.601562 C 151.273438 367.601562 150.292969 367.503906 149.324219 367.308594 C 148.351562 367.117188 147.410156 366.832031 146.496094 366.453125 C 145.582031 366.074219 144.714844 365.609375 143.890625 365.0625 C 143.070312 364.511719 142.308594 363.886719 141.609375 363.1875 C 140.910156 362.488281 140.285156 361.726562 139.734375 360.902344 C 139.1875 360.082031 138.722656 359.214844 138.34375 358.300781 C 137.964844 357.386719 137.679688 356.445312 137.484375 355.472656 C 137.292969 354.503906 137.195312 353.523438 137.195312 352.535156 C 137.195312 351.542969 137.292969 350.566406 137.484375 349.59375 C 137.679688 348.625 137.964844 347.683594 138.34375 346.769531 C 138.722656 345.855469 139.1875 344.988281 139.734375 344.164062 C 140.285156 343.339844 140.910156 342.582031 141.609375 341.882812 C 142.308594 341.179688 143.070312 340.558594 143.890625 340.007812 C 144.714844 339.457031 145.582031 338.992188 146.496094 338.613281 C 147.410156 338.238281 148.351562 337.949219 149.324219 337.757812 C 150.292969 337.566406 151.273438 337.46875 152.261719 337.46875 Z M 152.261719 337.46875 " fill-opacity="1" fill-rule="nonzero"/><path fill="#ffffff" d="M 106.09375 398.703125 C 111.980469 404.585938 121.519531 404.585938 127.40625 398.703125 C 133.292969 392.816406 133.292969 383.277344 127.40625 377.390625 C 121.519531 371.503906 111.980469 371.503906 106.09375 377.390625 C 100.207031 383.277344 100.207031 392.820312 106.09375 398.703125 Z M 106.09375 398.703125 " fill-opacity="1" fill-rule="nonzero"/><g fill="#ffffff" fill-opacity="1"><g transform="translate(416.077591, 356.38945)"><g><path d="M 99.84375 0 L 74 0 L 45.890625 -45.21875 L 36.265625 -38.328125 L 36.265625 0 L 13.515625 0 L 13.515625 -107.34375 L 36.265625 -107.34375 L 36.265625 -58.21875 C 37.785156 -60.320312 39.28125 -62.425781 40.75 -64.53125 C 42.21875 -66.632812 43.707031 -68.738281 45.21875 -70.84375 L 74.296875 -107.34375 L 99.546875 -107.34375 L 62.109375 -59.828125 Z M 99.84375 0 "/></g></g></g><g fill="#ffffff" fill-opacity="1"><g transform="translate(515.92419, 356.38945)"><g><path d="M 45.375 -83.765625 C 56.382812 -83.765625 64.828125 -81.363281 70.703125 -76.5625 C 76.578125 -71.769531 79.515625 -64.484375 79.515625 -54.703125 L 79.515625 0 L 63.875 0 L 59.546875 -11.15625 L 58.953125 -11.15625 C 56.609375 -8.21875 54.210938 -5.816406 51.765625 -3.953125 C 49.316406 -2.097656 46.5 -0.734375 43.3125 0.140625 C 40.132812 1.023438 36.269531 1.46875 31.71875 1.46875 C 26.875 1.46875 22.53125 0.539062 18.6875 -1.3125 C 14.84375 -3.175781 11.816406 -6.03125 9.609375 -9.875 C 7.410156 -13.71875 6.3125 -18.597656 6.3125 -24.515625 C 6.3125 -33.234375 9.367188 -39.660156 15.484375 -43.796875 C 21.609375 -47.929688 30.785156 -50.21875 43.015625 -50.65625 L 57.265625 -51.09375 L 57.265625 -54.703125 C 57.265625 -59.003906 56.140625 -62.15625 53.890625 -64.15625 C 51.640625 -66.164062 48.503906 -67.171875 44.484375 -67.171875 C 40.523438 -67.171875 36.632812 -66.609375 32.8125 -65.484375 C 29 -64.359375 25.179688 -62.941406 21.359375 -61.234375 L 13.953125 -76.359375 C 18.304688 -78.660156 23.1875 -80.46875 28.59375 -81.78125 C 34 -83.101562 39.59375 -83.765625 45.375 -83.765625 Z M 57.265625 -38.03125 L 48.609375 -37.734375 C 41.359375 -37.535156 36.328125 -36.238281 33.515625 -33.84375 C 30.703125 -31.445312 29.296875 -28.289062 29.296875 -24.375 C 29.296875 -20.945312 30.296875 -18.507812 32.296875 -17.0625 C 34.304688 -15.625 36.925781 -14.90625 40.15625 -14.90625 C 44.957031 -14.90625 49.007812 -16.320312 52.3125 -19.15625 C 55.613281 -22 57.265625 -26.039062 57.265625 -31.28125 Z M 57.265625 -38.03125 "/></g></g></g><g fill="#ffffff" fill-opacity="1"><g transform="translate(606.740566, 356.38945)"><g><path d="M 57.40625 -83.625 C 66.65625 -83.625 74.128906 -80.023438 79.828125 -72.828125 C 85.535156 -65.628906 88.390625 -55.082031 88.390625 -41.1875 C 88.390625 -31.882812 87.039062 -24.0625 84.34375 -17.71875 C 81.65625 -11.382812 77.9375 -6.601562 73.1875 -3.375 C 68.445312 -0.144531 62.992188 1.46875 56.828125 1.46875 C 52.859375 1.46875 49.453125 0.96875 46.609375 -0.03125 C 43.773438 -1.039062 41.351562 -2.335938 39.34375 -3.921875 C 37.34375 -5.515625 35.609375 -7.21875 34.140625 -9.03125 L 32.96875 -9.03125 C 33.351562 -7.070312 33.644531 -5.0625 33.84375 -3 C 34.039062 -0.945312 34.140625 1.054688 34.140625 3.015625 L 34.140625 36.125 L 11.75 36.125 L 11.75 -82.078125 L 29.953125 -82.078125 L 33.109375 -71.4375 L 34.140625 -71.4375 C 35.609375 -73.632812 37.394531 -75.660156 39.5 -77.515625 C 41.601562 -79.378906 44.132812 -80.863281 47.09375 -81.96875 C 50.0625 -83.070312 53.5 -83.625 57.40625 -83.625 Z M 50.21875 -65.703125 C 46.300781 -65.703125 43.191406 -64.894531 40.890625 -63.28125 C 38.585938 -61.664062 36.910156 -59.242188 35.859375 -56.015625 C 34.804688 -52.785156 34.234375 -48.695312 34.140625 -43.75 L 34.140625 -41.328125 C 34.140625 -36.046875 34.640625 -31.566406 35.640625 -27.890625 C 36.648438 -24.222656 38.335938 -21.4375 40.703125 -19.53125 C 43.078125 -17.625 46.347656 -16.671875 50.515625 -16.671875 C 53.941406 -16.671875 56.753906 -17.625 58.953125 -19.53125 C 61.160156 -21.4375 62.8125 -24.238281 63.90625 -27.9375 C 65.007812 -31.632812 65.5625 -36.148438 65.5625 -41.484375 C 65.5625 -49.503906 64.3125 -55.546875 61.8125 -59.609375 C 59.320312 -63.671875 55.457031 -65.703125 50.21875 -65.703125 Z M 50.21875 -65.703125 "/></g></g></g><g fill="#ffffff" fill-opacity="1"><g transform="translate(701.888501, 356.38945)"><g><path d="M 34.140625 -82.078125 L 34.140625 0 L 11.75 0 L 11.75 -82.078125 Z M 22.984375 -114.234375 C 26.304688 -114.234375 29.164062 -113.460938 31.5625 -111.921875 C 33.96875 -110.378906 35.171875 -107.503906 35.171875 -103.296875 C 35.171875 -99.140625 33.96875 -96.265625 31.5625 -94.671875 C 29.164062 -93.078125 26.304688 -92.28125 22.984375 -92.28125 C 19.597656 -92.28125 16.71875 -93.078125 14.34375 -94.671875 C 11.976562 -96.265625 10.796875 -99.140625 10.796875 -103.296875 C 10.796875 -107.503906 11.976562 -110.378906 14.34375 -111.921875 C 16.71875 -113.460938 19.597656 -114.234375 22.984375 -114.234375 Z M 22.984375 -114.234375 "/></g></g></g><g fill="#ffffff" fill-opacity="1"><g transform="translate(747.773909, 356.38945)"><g><path d="M 46.328125 -16.375 C 48.773438 -16.375 51.160156 -16.617188 53.484375 -17.109375 C 55.804688 -17.597656 58.117188 -18.207031 60.421875 -18.9375 L 60.421875 -2.28125 C 58.023438 -1.195312 55.050781 -0.300781 51.5 0.40625 C 47.957031 1.113281 44.078125 1.46875 39.859375 1.46875 C 34.972656 1.46875 30.582031 0.675781 26.6875 -0.90625 C 22.789062 -2.5 19.726562 -5.265625 17.5 -9.203125 C 15.28125 -13.148438 14.171875 -18.648438 14.171875 -25.703125 L 14.171875 -65.265625 L 3.453125 -65.265625 L 3.453125 -74.734375 L 15.78125 -82.234375 L 22.25 -99.546875 L 36.5625 -99.546875 L 36.5625 -82.078125 L 59.546875 -82.078125 L 59.546875 -65.265625 L 36.5625 -65.265625 L 36.5625 -25.703125 C 36.5625 -22.566406 37.453125 -20.226562 39.234375 -18.6875 C 41.023438 -17.144531 43.390625 -16.375 46.328125 -16.375 Z M 46.328125 -16.375 "/></g></g></g><g fill="#ffffff" fill-opacity="1"><g transform="translate(813.041302, 356.38945)"><g><path d="M 45.375 -83.765625 C 56.382812 -83.765625 64.828125 -81.363281 70.703125 -76.5625 C 76.578125 -71.769531 79.515625 -64.484375 79.515625 -54.703125 L 79.515625 0 L 63.875 0 L 59.546875 -11.15625 L 58.953125 -11.15625 C 56.609375 -8.21875 54.210938 -5.816406 51.765625 -3.953125 C 49.316406 -2.097656 46.5 -0.734375 43.3125 0.140625 C 40.132812 1.023438 36.269531 1.46875 31.71875 1.46875 C 26.875 1.46875 22.53125 0.539062 18.6875 -1.3125 C 14.84375 -3.175781 11.816406 -6.03125 9.609375 -9.875 C 7.410156 -13.71875 6.3125 -18.597656 6.3125 -24.515625 C 6.3125 -33.234375 9.367188 -39.660156 15.484375 -43.796875 C 21.609375 -47.929688 30.785156 -50.21875 43.015625 -50.65625 L 57.265625 -51.09375 L 57.265625 -54.703125 C 57.265625 -59.003906 56.140625 -62.15625 53.890625 -64.15625 C 51.640625 -66.164062 48.503906 -67.171875 44.484375 -67.171875 C 40.523438 -67.171875 36.632812 -66.609375 32.8125 -65.484375 C 29 -64.359375 25.179688 -62.941406 21.359375 -61.234375 L 13.953125 -76.359375 C 18.304688 -78.660156 23.1875 -80.46875 28.59375 -81.78125 C 34 -83.101562 39.59375 -83.765625 45.375 -83.765625 Z M 57.265625 -38.03125 L 48.609375 -37.734375 C 41.359375 -37.535156 36.328125 -36.238281 33.515625 -33.84375 C 30.703125 -31.445312 29.296875 -28.289062 29.296875 -24.375 C 29.296875 -20.945312 30.296875 -18.507812 32.296875 -17.0625 C 34.304688 -15.625 36.925781 -14.90625 40.15625 -14.90625 C 44.957031 -14.90625 49.007812 -16.320312 52.3125 -19.15625 C 55.613281 -22 57.265625 -26.039062 57.265625 -31.28125 Z M 57.265625 -38.03125 "/></g></g></g><g fill="#ffffff" fill-opacity="1"><g transform="translate(903.857677, 356.38945)"><g><path d="M 34.140625 0 L 11.75 0 L 11.75 -114.234375 L 34.140625 -114.234375 Z M 34.140625 0 "/></g></g></g></svg>