<svg xmlns="http://www.w3.org/2000/svg" xmlns:xlink="http://www.w3.org/1999/xlink" width="446" zoomAndPan="magnify" viewBox="0 0 334.5 178.499995" height="238" preserveAspectRatio="xMidYMid meet" version="1.0"><defs><g/><clipPath id="5bc855112a"><rect x="0" width="289" y="0" height="130"/></clipPath><clipPath id="5e083d9c9d"><path d="M 213.335938 41.480469 L 302.558594 41.480469 L 302.558594 50.871094 L 213.335938 50.871094 Z M 213.335938 41.480469 " clip-rule="nonzero"/></clipPath><clipPath id="15075f8c76"><path d="M 0.335938 0.480469 L 89.558594 0.480469 L 89.558594 9.871094 L 0.335938 9.871094 Z M 0.335938 0.480469 " clip-rule="nonzero"/></clipPath><clipPath id="51fba78fae"><rect x="0" width="90" y="0" height="10"/></clipPath><clipPath id="de6999d478"><rect x="0" width="145" y="0" height="59"/></clipPath></defs><g transform="matrix(1, 0, 0, 1, 23, 13)"><g clip-path="url(#5bc855112a)"><g fill="#000000" fill-opacity="1"><g transform="translate(0.303915, 98.004882)"><g><path d="M 64.65625 0 L 50.65625 0 L 45.578125 -15.53125 L 19.765625 -15.53125 L 14.703125 0 L 1.015625 0 L 24.28125 -67.375 L 41.390625 -67.375 Z M 32.03125 -53.328125 L 23.375 -26.734375 L 41.890625 -26.734375 L 33.1875 -53.328125 Z M 32.03125 -53.328125 "/></g></g></g><g fill="#000000" fill-opacity="1"><g transform="translate(65.978106, 98.004882)"><g><path d="M 7.328125 0 L 7.328125 -50.84375 L 19.59375 -50.84375 L 19.59375 -43.375 L 20.5625 -43.140625 C 23.71875 -48.910156 28.847656 -51.796875 35.953125 -51.796875 C 41.816406 -51.796875 46.125 -50.195312 48.875 -47 C 51.625 -43.8125 53 -39.160156 53 -33.046875 L 53 0 L 40.234375 0 L 40.234375 -31.484375 C 40.234375 -34.859375 39.554688 -37.289062 38.203125 -38.78125 C 36.859375 -40.269531 34.691406 -41.015625 31.703125 -41.015625 C 28.046875 -41.015625 25.195312 -39.832031 23.15625 -37.46875 C 21.113281 -35.101562 20.09375 -31.382812 20.09375 -26.3125 L 20.09375 0 Z M 7.328125 0 "/></g></g></g><g fill="#000000" fill-opacity="1"><g transform="translate(125.522675, 98.004882)"><g><path d="M 25.125 0.96875 C 21.09375 0.96875 17.53125 -0.00390625 14.4375 -1.953125 C 11.351562 -3.910156 8.9375 -6.863281 7.1875 -10.8125 C 5.4375 -14.757812 4.5625 -19.617188 4.5625 -25.390625 C 4.5625 -31.203125 5.457031 -36.082031 7.25 -40.03125 C 9.050781 -43.976562 11.539062 -46.925781 14.71875 -48.875 C 17.90625 -50.820312 21.585938 -51.796875 25.765625 -51.796875 C 28.929688 -51.796875 31.671875 -51.25 33.984375 -50.15625 C 36.304688 -49.070312 38.265625 -47.378906 39.859375 -45.078125 L 40.828125 -45.3125 L 40.828125 -71.25 L 53.609375 -71.25 L 53.609375 0 L 40.828125 0 L 40.828125 -6.59375 L 39.859375 -6.78125 C 38.453125 -4.382812 36.519531 -2.492188 34.0625 -1.109375 C 31.601562 0.273438 28.625 0.96875 25.125 0.96875 Z M 29.265625 -9.859375 C 32.859375 -9.859375 35.695312 -11.140625 37.78125 -13.703125 C 39.875 -16.273438 40.921875 -20.171875 40.921875 -25.390625 C 40.921875 -30.617188 39.875 -34.519531 37.78125 -37.09375 C 35.695312 -39.675781 32.859375 -40.96875 29.265625 -40.96875 C 25.515625 -40.96875 22.648438 -39.710938 20.671875 -37.203125 C 18.691406 -34.703125 17.703125 -30.765625 17.703125 -25.390625 C 17.703125 -20.046875 18.691406 -16.117188 20.671875 -13.609375 C 22.648438 -11.109375 25.515625 -9.859375 29.265625 -9.859375 Z M 29.265625 -9.859375 "/></g></g></g><g fill="#000000" fill-opacity="1"><g transform="translate(186.449858, 98.004882)"><g><path d="M 19.8125 0.96875 C 16.5625 0.96875 13.738281 0.367188 11.34375 -0.828125 C 8.945312 -2.023438 7.101562 -3.785156 5.8125 -6.109375 C 4.519531 -8.429688 3.875 -11.21875 3.875 -14.46875 C 3.875 -17.476562 4.519531 -20.003906 5.8125 -22.046875 C 7.101562 -24.097656 9.097656 -25.773438 11.796875 -27.078125 C 14.503906 -28.378906 18.039062 -29.382812 22.40625 -30.09375 C 25.445312 -30.582031 27.753906 -31.117188 29.328125 -31.703125 C 30.910156 -32.285156 31.976562 -32.945312 32.53125 -33.6875 C 33.09375 -34.425781 33.375 -35.363281 33.375 -36.5 C 33.375 -38.132812 32.800781 -39.378906 31.65625 -40.234375 C 30.519531 -41.097656 28.632812 -41.53125 26 -41.53125 C 23.164062 -41.53125 20.472656 -40.898438 17.921875 -39.640625 C 15.378906 -38.378906 13.171875 -36.71875 11.296875 -34.65625 L 10.375 -34.65625 L 5.03125 -42.71875 C 7.601562 -45.582031 10.75 -47.8125 14.46875 -49.40625 C 18.1875 -51 22.242188 -51.796875 26.640625 -51.796875 C 33.367188 -51.796875 38.238281 -50.367188 41.25 -47.515625 C 44.257812 -44.660156 45.765625 -40.601562 45.765625 -35.34375 L 45.765625 -13.28125 C 45.765625 -11 46.765625 -9.859375 48.765625 -9.859375 C 49.535156 -9.859375 50.285156 -10 51.015625 -10.28125 L 51.671875 -10.09375 L 52.59375 -1.203125 C 51.882812 -0.734375 50.898438 -0.351562 49.640625 -0.0625 C 48.378906 0.226562 46.992188 0.375 45.484375 0.375 C 42.441406 0.375 40.066406 -0.207031 38.359375 -1.375 C 36.660156 -2.550781 35.441406 -4.382812 34.703125 -6.875 L 33.734375 -6.953125 C 31.242188 -1.671875 26.601562 0.96875 19.8125 0.96875 Z M 23.875 -8.578125 C 26.820312 -8.578125 29.175781 -9.566406 30.9375 -11.546875 C 32.707031 -13.523438 33.59375 -16.28125 33.59375 -19.8125 L 33.59375 -24.984375 L 32.71875 -25.171875 C 31.957031 -24.554688 30.953125 -24.039062 29.703125 -23.625 C 28.460938 -23.207031 26.671875 -22.800781 24.328125 -22.40625 C 21.566406 -21.9375 19.578125 -21.140625 18.359375 -20.015625 C 17.148438 -18.898438 16.546875 -17.3125 16.546875 -15.25 C 16.546875 -13.070312 17.191406 -11.414062 18.484375 -10.28125 C 19.773438 -9.144531 21.570312 -8.578125 23.875 -8.578125 Z M 23.875 -8.578125 "/></g></g></g><g fill="#000000" fill-opacity="1"><g transform="translate(240.049221, 98.004882)"><g><path d="M 23.78125 0.96875 C 20.3125 0.96875 17.128906 0.5625 14.234375 -0.25 C 11.347656 -1.0625 8.882812 -2.179688 6.84375 -3.609375 C 4.800781 -5.046875 3.285156 -6.6875 2.296875 -8.53125 L 9.40625 -16.171875 L 10.375 -16.171875 C 12.0625 -13.898438 14.054688 -12.195312 16.359375 -11.0625 C 18.660156 -9.925781 21.164062 -9.359375 23.875 -9.359375 C 26.363281 -9.359375 28.238281 -9.800781 29.5 -10.6875 C 30.757812 -11.582031 31.390625 -12.859375 31.390625 -14.515625 C 31.390625 -15.804688 30.9375 -16.890625 30.03125 -17.765625 C 29.125 -18.640625 27.65625 -19.320312 25.625 -19.8125 L 18.890625 -21.4375 C 13.859375 -22.632812 10.179688 -24.46875 7.859375 -26.9375 C 5.535156 -29.414062 4.375 -32.554688 4.375 -36.359375 C 4.375 -39.523438 5.179688 -42.273438 6.796875 -44.609375 C 8.410156 -46.941406 10.679688 -48.722656 13.609375 -49.953125 C 16.546875 -51.179688 19.96875 -51.796875 23.875 -51.796875 C 28.445312 -51.796875 32.238281 -51.132812 35.25 -49.8125 C 38.269531 -48.5 40.625 -46.734375 42.3125 -44.515625 L 35.484375 -37.140625 L 34.5625 -37.140625 C 33.15625 -38.742188 31.566406 -39.910156 29.796875 -40.640625 C 28.023438 -41.378906 26.050781 -41.75 23.875 -41.75 C 18.832031 -41.75 16.3125 -40.1875 16.3125 -37.0625 C 16.3125 -35.738281 16.78125 -34.660156 17.71875 -33.828125 C 18.65625 -32.992188 20.304688 -32.316406 22.671875 -31.796875 L 28.9375 -30.421875 C 34.101562 -29.316406 37.875 -27.539062 40.25 -25.09375 C 42.632812 -22.65625 43.828125 -19.375 43.828125 -15.25 C 43.828125 -12.03125 43.023438 -9.191406 41.421875 -6.734375 C 39.828125 -4.273438 37.523438 -2.375 34.515625 -1.03125 C 31.503906 0.300781 27.925781 0.96875 23.78125 0.96875 Z M 23.78125 0.96875 "/></g></g></g></g></g><g clip-path="url(#5e083d9c9d)"><g transform="matrix(1, 0, 0, 1, 213, 41)"><g clip-path="url(#51fba78fae)"><g clip-path="url(#15075f8c76)"><path fill="#000000" d="M 0.335938 0.480469 L 89.558594 0.480469 L 89.558594 9.871094 L 0.335938 9.871094 Z M 0.335938 0.480469 " fill-opacity="1" fill-rule="nonzero"/></g></g></g></g><g transform="matrix(1, 0, 0, 1, 166, 113)"><g clip-path="url(#de6999d478)"><g fill="#000000" fill-opacity="1"><g transform="translate(0.646839, 45.027999)"><g><path d="M 16.21875 0.421875 C 13.644531 0.421875 11.351562 -0.164062 9.34375 -1.34375 C 7.34375 -2.519531 5.773438 -4.242188 4.640625 -6.515625 C 3.503906 -8.785156 2.9375 -11.503906 2.9375 -14.671875 C 2.9375 -17.847656 3.503906 -20.566406 4.640625 -22.828125 C 5.773438 -25.097656 7.34375 -26.820312 9.34375 -28 C 11.351562 -29.175781 13.644531 -29.765625 16.21875 -29.765625 C 18.957031 -29.765625 21.238281 -29.242188 23.0625 -28.203125 C 24.882812 -27.171875 26.195312 -25.613281 27 -23.53125 L 24.796875 -22.0625 L 24.28125 -22.0625 C 23.476562 -23.726562 22.4375 -24.910156 21.15625 -25.609375 C 19.875 -26.316406 18.226562 -26.671875 16.21875 -26.671875 C 14.375 -26.671875 12.734375 -26.257812 11.296875 -25.4375 C 9.867188 -24.613281 8.734375 -23.304688 7.890625 -21.515625 C 7.046875 -19.734375 6.625 -17.453125 6.625 -14.671875 C 6.625 -11.890625 7.046875 -9.609375 7.890625 -7.828125 C 8.734375 -6.046875 9.867188 -4.742188 11.296875 -3.921875 C 12.734375 -3.097656 14.375 -2.6875 16.21875 -2.6875 C 18.34375 -2.6875 20.082031 -3.164062 21.4375 -4.125 C 22.789062 -5.082031 23.796875 -6.628906 24.453125 -8.765625 L 24.953125 -8.765625 L 27.265625 -7.625 C 26.566406 -5.03125 25.273438 -3.039062 23.390625 -1.65625 C 21.515625 -0.269531 19.125 0.421875 16.21875 0.421875 Z M 16.21875 0.421875 "/></g></g><g transform="translate(29.435167, 45.027999)"><g><path d="M 9.140625 0.421875 C 6.953125 0.421875 5.242188 -0.144531 4.015625 -1.28125 C 2.796875 -2.414062 2.1875 -4.039062 2.1875 -6.15625 C 2.1875 -7.46875 2.457031 -8.578125 3 -9.484375 C 3.539062 -10.390625 4.378906 -11.125 5.515625 -11.6875 C 6.648438 -12.257812 8.132812 -12.695312 9.96875 -13 C 11.582031 -13.269531 12.804688 -13.570312 13.640625 -13.90625 C 14.472656 -14.238281 15.03125 -14.613281 15.3125 -15.03125 C 15.601562 -15.445312 15.75 -15.96875 15.75 -16.59375 C 15.75 -17.601562 15.40625 -18.375 14.71875 -18.90625 C 14.03125 -19.445312 12.925781 -19.71875 11.40625 -19.71875 C 9.96875 -19.71875 8.738281 -19.4375 7.71875 -18.875 C 6.695312 -18.320312 5.753906 -17.5 4.890625 -16.40625 L 4.5 -16.40625 L 2.890625 -18.671875 C 3.828125 -19.859375 5.015625 -20.800781 6.453125 -21.5 C 7.898438 -22.207031 9.550781 -22.5625 11.40625 -22.5625 C 14.007812 -22.5625 15.929688 -21.988281 17.171875 -20.84375 C 18.410156 -19.695312 19.03125 -18.113281 19.03125 -16.09375 L 19.03125 -4.359375 C 19.03125 -3.128906 19.550781 -2.515625 20.59375 -2.515625 C 20.9375 -2.515625 21.269531 -2.570312 21.59375 -2.6875 L 21.875 -2.609375 L 22.265625 -0.34375 C 22.023438 -0.175781 21.707031 -0.0507812 21.3125 0.03125 C 20.914062 0.113281 20.507812 0.15625 20.09375 0.15625 C 18.875 0.15625 17.953125 -0.109375 17.328125 -0.640625 C 16.710938 -1.171875 16.316406 -1.960938 16.140625 -3.015625 L 15.71875 -3.046875 C 15.09375 -1.890625 14.242188 -1.019531 13.171875 -0.4375 C 12.097656 0.132812 10.753906 0.421875 9.140625 0.421875 Z M 9.859375 -2.1875 C 11.085938 -2.1875 12.148438 -2.46875 13.046875 -3.03125 C 13.953125 -3.601562 14.644531 -4.40625 15.125 -5.4375 C 15.613281 -6.46875 15.859375 -7.660156 15.859375 -9.015625 L 15.859375 -11.828125 L 15.46875 -11.90625 C 14.976562 -11.550781 14.378906 -11.253906 13.671875 -11.015625 C 12.960938 -10.785156 11.972656 -10.578125 10.703125 -10.390625 C 9.410156 -10.222656 8.382812 -9.957031 7.625 -9.59375 C 6.875 -9.226562 6.335938 -8.769531 6.015625 -8.21875 C 5.703125 -7.664062 5.546875 -6.976562 5.546875 -6.15625 C 5.546875 -4.863281 5.925781 -3.878906 6.6875 -3.203125 C 7.445312 -2.523438 8.503906 -2.1875 9.859375 -2.1875 Z M 9.859375 -2.1875 "/></g></g><g transform="translate(52.341362, 45.027999)"><g><path d="M 3.859375 8.96875 L 3.859375 -22.140625 L 7.125 -22.140625 L 7.125 -18.828125 L 7.546875 -18.75 C 9.191406 -21.289062 11.609375 -22.5625 14.796875 -22.5625 C 16.640625 -22.5625 18.25 -22.140625 19.625 -21.296875 C 21.007812 -20.453125 22.082031 -19.171875 22.84375 -17.453125 C 23.601562 -15.734375 23.984375 -13.601562 23.984375 -11.0625 C 23.984375 -8.53125 23.582031 -6.40625 22.78125 -4.6875 C 21.976562 -2.976562 20.867188 -1.695312 19.453125 -0.84375 C 18.035156 0 16.398438 0.421875 14.546875 0.421875 C 13.054688 0.421875 11.726562 0.160156 10.5625 -0.359375 C 9.394531 -0.878906 8.390625 -1.738281 7.546875 -2.9375 L 7.125 -2.84375 L 7.125 8.96875 Z M 13.828125 -2.515625 C 18.316406 -2.515625 20.5625 -5.363281 20.5625 -11.0625 C 20.5625 -16.769531 18.316406 -19.625 13.828125 -19.625 C 12.515625 -19.625 11.359375 -19.320312 10.359375 -18.71875 C 9.359375 -18.125 8.566406 -17.1875 7.984375 -15.90625 C 7.410156 -14.625 7.125 -13.007812 7.125 -11.0625 C 7.125 -9.125 7.410156 -7.515625 7.984375 -6.234375 C 8.566406 -4.953125 9.359375 -4.007812 10.359375 -3.40625 C 11.359375 -2.8125 12.515625 -2.515625 13.828125 -2.515625 Z M 13.828125 -2.515625 "/></g></g><g transform="translate(78.760777, 45.027999)"><g><path d="M 5.5 -26.421875 C 4.800781 -26.421875 4.234375 -26.632812 3.796875 -27.0625 C 3.367188 -27.5 3.15625 -28.050781 3.15625 -28.71875 C 3.15625 -29.394531 3.367188 -29.945312 3.796875 -30.375 C 4.234375 -30.8125 4.800781 -31.03125 5.5 -31.03125 C 6.195312 -31.03125 6.757812 -30.8125 7.1875 -30.375 C 7.625 -29.945312 7.84375 -29.394531 7.84375 -28.71875 C 7.84375 -28.050781 7.625 -27.5 7.1875 -27.0625 C 6.757812 -26.632812 6.195312 -26.421875 5.5 -26.421875 Z M 3.859375 0 L 3.859375 -22.140625 L 7.125 -22.140625 L 7.125 0 Z M 3.859375 0 "/></g></g><g transform="translate(89.742099, 45.027999)"><g><path d="M 14.96875 -3.515625 L 16.015625 -1.171875 C 15.492188 -0.640625 14.804688 -0.242188 13.953125 0.015625 C 13.109375 0.285156 12.191406 0.421875 11.203125 0.421875 C 6.972656 0.421875 4.859375 -1.71875 4.859375 -6 L 4.859375 -19.46875 L 1 -19.46875 L 1 -22.15625 L 4.859375 -22.15625 L 4.859375 -26.84375 L 8.125 -27.375 L 8.125 -22.15625 L 15.25 -22.15625 L 15.25 -19.46875 L 8.125 -19.46875 L 8.125 -6.328125 C 8.125 -3.785156 9.226562 -2.515625 11.4375 -2.515625 C 12.644531 -2.515625 13.679688 -2.847656 14.546875 -3.515625 Z M 14.96875 -3.515625 "/></g></g><g transform="translate(106.605555, 45.027999)"><g><path d="M 9.140625 0.421875 C 6.953125 0.421875 5.242188 -0.144531 4.015625 -1.28125 C 2.796875 -2.414062 2.1875 -4.039062 2.1875 -6.15625 C 2.1875 -7.46875 2.457031 -8.578125 3 -9.484375 C 3.539062 -10.390625 4.378906 -11.125 5.515625 -11.6875 C 6.648438 -12.257812 8.132812 -12.695312 9.96875 -13 C 11.582031 -13.269531 12.804688 -13.570312 13.640625 -13.90625 C 14.472656 -14.238281 15.03125 -14.613281 15.3125 -15.03125 C 15.601562 -15.445312 15.75 -15.96875 15.75 -16.59375 C 15.75 -17.601562 15.40625 -18.375 14.71875 -18.90625 C 14.03125 -19.445312 12.925781 -19.71875 11.40625 -19.71875 C 9.96875 -19.71875 8.738281 -19.4375 7.71875 -18.875 C 6.695312 -18.320312 5.753906 -17.5 4.890625 -16.40625 L 4.5 -16.40625 L 2.890625 -18.671875 C 3.828125 -19.859375 5.015625 -20.800781 6.453125 -21.5 C 7.898438 -22.207031 9.550781 -22.5625 11.40625 -22.5625 C 14.007812 -22.5625 15.929688 -21.988281 17.171875 -20.84375 C 18.410156 -19.695312 19.03125 -18.113281 19.03125 -16.09375 L 19.03125 -4.359375 C 19.03125 -3.128906 19.550781 -2.515625 20.59375 -2.515625 C 20.9375 -2.515625 21.269531 -2.570312 21.59375 -2.6875 L 21.875 -2.609375 L 22.265625 -0.34375 C 22.023438 -0.175781 21.707031 -0.0507812 21.3125 0.03125 C 20.914062 0.113281 20.507812 0.15625 20.09375 0.15625 C 18.875 0.15625 17.953125 -0.109375 17.328125 -0.640625 C 16.710938 -1.171875 16.316406 -1.960938 16.140625 -3.015625 L 15.71875 -3.046875 C 15.09375 -1.890625 14.242188 -1.019531 13.171875 -0.4375 C 12.097656 0.132812 10.753906 0.421875 9.140625 0.421875 Z M 9.859375 -2.1875 C 11.085938 -2.1875 12.148438 -2.46875 13.046875 -3.03125 C 13.953125 -3.601562 14.644531 -4.40625 15.125 -5.4375 C 15.613281 -6.46875 15.859375 -7.660156 15.859375 -9.015625 L 15.859375 -11.828125 L 15.46875 -11.90625 C 14.976562 -11.550781 14.378906 -11.253906 13.671875 -11.015625 C 12.960938 -10.785156 11.972656 -10.578125 10.703125 -10.390625 C 9.410156 -10.222656 8.382812 -9.957031 7.625 -9.59375 C 6.875 -9.226562 6.335938 -8.769531 6.015625 -8.21875 C 5.703125 -7.664062 5.546875 -6.976562 5.546875 -6.15625 C 5.546875 -4.863281 5.925781 -3.878906 6.6875 -3.203125 C 7.445312 -2.523438 8.503906 -2.1875 9.859375 -2.1875 Z M 9.859375 -2.1875 "/></g></g><g transform="translate(129.511749, 45.027999)"><g><path d="M 8.8125 0.421875 C 7.25 0.421875 6.019531 -0.0195312 5.125 -0.90625 C 4.226562 -1.800781 3.78125 -3.128906 3.78125 -4.890625 L 3.78125 -31.03125 L 7.046875 -31.03125 L 7.046875 -5.125 C 7.046875 -4.195312 7.222656 -3.53125 7.578125 -3.125 C 7.929688 -2.71875 8.484375 -2.515625 9.234375 -2.515625 C 9.691406 -2.515625 10.15625 -2.585938 10.625 -2.734375 L 10.90625 -2.65625 L 11.28125 -0.078125 C 11.039062 0.078125 10.695312 0.195312 10.25 0.28125 C 9.800781 0.375 9.320312 0.421875 8.8125 0.421875 Z M 8.8125 0.421875 "/></g></g></g></g></g></svg>